<?xml version="1.0" encoding="iso-8859-1"?>
<!-- Generator: Adobe Illustrator 19.0.0, SVG Export Plug-In . SVG Version: 6.00 Build 0)  -->
<svg version="1.1" id="Layer_1" xmlns="http://www.w3.org/2000/svg" xmlns:xlink="http://www.w3.org/1999/xlink" x="0px" y="0px"
	 viewBox="0 0 512 512" style="enable-background:new 0 0 512 512;" xml:space="preserve">
<g>
	<path style="fill:#CDD6E0;" d="M115.2,375.467c5.333-16,0-34.133-13.867-43.733c9.6,13.867,5.333,27.733,0,42.667
		c-5.333,16,0,34.133,13.867,43.733C105.6,404.267,110.933,390.4,115.2,375.467z"/>
	<path style="fill:#CDD6E0;" d="M261.333,375.467c5.333-16,0-34.133-13.867-43.733c9.6,13.867,5.333,27.733,0,42.667
		c-5.333,16,0,34.133,13.867,43.733C252.8,404.267,257.067,390.4,261.333,375.467z"/>
	<path style="fill:#CDD6E0;" d="M188.8,375.467c5.333-16,0-34.133-13.867-43.733c9.6,13.867,5.333,27.733,0,42.667
		c-5.333,16,0,34.133,13.867,43.733C179.2,404.267,183.467,390.4,188.8,375.467z"/>
	<path style="fill:#CDD6E0;" d="M334.933,375.467c5.333-16,0-34.133-13.867-43.733c9.6,13.867,5.333,27.733,0,42.667
		c-5.333,16,0,34.133,13.867,43.733C325.333,404.267,329.6,390.4,334.933,375.467z"/>
</g>
<path style="fill:#F2F2F2;" d="M490.667,317.867H21.333C9.6,317.867,0,308.267,0,296.533V115.2c0-11.733,9.6-21.333,21.333-21.333
	h469.333c11.733,0,21.333,9.6,21.333,21.333v181.333C512,308.267,502.4,317.867,490.667,317.867z"/>
<path style="fill:#CDD6E0;" d="M0,257.067v39.467c0,11.733,9.6,21.333,21.333,21.333h469.333c11.733,0,21.333-9.6,21.333-21.333
	v-39.467H0z"/>
<rect x="36.267" y="270.933" style="fill:#334A5E;" width="363.733" height="32"/>
<rect x="36.267" y="278.4" style="fill:#40596B;" width="363.733" height="9.6"/>
<g>
	<rect x="36.267" y="125.867" style="fill:#CDD6E0;" width="439.467" height="10.667"/>
	<rect x="36.267" y="155.733" style="fill:#CDD6E0;" width="439.467" height="10.667"/>
	<rect x="36.267" y="184.533" style="fill:#CDD6E0;" width="439.467" height="10.667"/>
	<rect x="36.267" y="213.333" style="fill:#CDD6E0;" width="439.467" height="10.667"/>
</g>
<circle style="fill:#FFD15C;" cx="421.333" cy="286.933" r="8.533"/>
<circle style="fill:#FF7058;" cx="454.4" cy="286.933" r="8.533"/>
<g>
</g>
<g>
</g>
<g>
</g>
<g>
</g>
<g>
</g>
<g>
</g>
<g>
</g>
<g>
</g>
<g>
</g>
<g>
</g>
<g>
</g>
<g>
</g>
<g>
</g>
<g>
</g>
<g>
</g>
</svg>
