<?xml version="1.0" encoding="iso-8859-1"?>
<!-- Generator: Adobe Illustrator 19.0.0, SVG Export Plug-In . SVG Version: 6.00 Build 0)  -->
<svg version="1.1" id="Layer_1" xmlns="http://www.w3.org/2000/svg" xmlns:xlink="http://www.w3.org/1999/xlink" x="0px" y="0px"
	 viewBox="0 0 512 512" style="enable-background:new 0 0 512 512;" xml:space="preserve">
<circle style="fill:#386895;" cx="256" cy="256" r="256"/>
<path style="fill:#273B7A;" d="M256,512c132.256,0,241.078-100.295,254.581-228.974L312.889,85.333l-33.797,16.194l-9.981-0.572
	l-69.999,12.822l99.488,99.488l-26.222,43.596l28.951,28.951L142.222,398.222L256,512z"/>
<rect x="170.667" y="142.222" style="fill:#FFFFFF;" width="170.667" height="256"/>
<rect x="256" y="142.222" style="fill:#D0D1D3;" width="85.333" height="256"/>
<rect x="199.111" y="85.333" style="fill:#FFC61B;" width="113.778" height="28.444"/>
<rect x="256" y="85.333" style="fill:#EAA22F;" width="56.889" height="28.444"/>
<circle style="fill:#FFC61B;" cx="374.949" cy="252.983" r="8.62"/>
<circle style="fill:#FFEDB5;" cx="374.949" cy="287.461" r="8.62"/>
<rect x="142.222" y="369.778" style="fill:#A6A8AA;" width="227.556" height="28.444"/>
<rect x="256" y="369.778" style="fill:#808183;" width="113.778" height="28.444"/>
<g>
</g>
<g>
</g>
<g>
</g>
<g>
</g>
<g>
</g>
<g>
</g>
<g>
</g>
<g>
</g>
<g>
</g>
<g>
</g>
<g>
</g>
<g>
</g>
<g>
</g>
<g>
</g>
<g>
</g>
</svg>
