<?xml version="1.0" encoding="iso-8859-1"?>
<!-- Generator: Adobe Illustrator 19.0.0, SVG Export Plug-In . SVG Version: 6.00 Build 0)  -->
<svg version="1.1" id="Layer_1" xmlns="http://www.w3.org/2000/svg" xmlns:xlink="http://www.w3.org/1999/xlink" x="0px" y="0px"
	 viewBox="0 0 511.993 511.993" style="enable-background:new 0 0 511.993 511.993;" xml:space="preserve">
<circle style="fill:#3C3B41;" cx="255.996" cy="255.996" r="255.996"/>
<path style="fill:#171719;" d="M511.795,265.805L330.148,84.157c-18.393-20.04-44.801-32.606-74.147-32.606
	c-55.573,0-100.624,45.051-100.624,100.623c0,29.293,12.529,55.648,32.507,74.035l34.929,35.033v163.961l33.189,35.245
	l47.193,47.193C418.917,486.072,507.242,386.665,511.795,265.805z"/>
<path style="fill:#FFFFFF;" d="M356.624,152.175c0-55.573-45.051-100.623-100.623-100.623S155.377,96.603,155.377,152.175
	c0,43.944,28.172,81.301,67.437,95.015v20.302v1.559v156.153l33.189,35.245l33.189-35.245v-19.827l-19.568-16.499l19.509-16.449
	l-19.509-16.449l19.509-16.449l-19.509-16.449l19.568-16.499v-37.533h13.353v-27.648
	C334.684,224.604,356.624,190.953,356.624,152.175z M256.001,80.193c13.403,0,24.267,10.865,24.267,24.267
	s-10.865,24.267-24.267,24.267s-24.267-10.865-24.267-24.267S242.598,80.193,256.001,80.193z"/>
<path style="fill:#C8C6CC;" d="M256.001,51.551v28.642c13.403,0,24.267,10.865,24.267,24.267s-10.865,24.267-24.267,24.267v331.718
	l0.002,0.002l33.189-35.245v-19.827l-19.568-16.499l19.509-16.449l-19.509-16.449l19.509-16.449l-19.509-16.449l19.568-16.499
	v-37.533h13.353v-27.648c32.141-16.8,54.081-50.449,54.081-89.229C356.624,96.602,311.573,51.551,256.001,51.551z"/>
<polygon style="fill:#8B8992;" points="256.003,267.492 256.003,460.449 240.174,443.64 240.174,267.492 "/>
<g>
</g>
<g>
</g>
<g>
</g>
<g>
</g>
<g>
</g>
<g>
</g>
<g>
</g>
<g>
</g>
<g>
</g>
<g>
</g>
<g>
</g>
<g>
</g>
<g>
</g>
<g>
</g>
<g>
</g>
</svg>
