<?xml version="1.0" encoding="utf-8"?>
<!-- Generator: Adobe Illustrator 14.0.0, SVG Export Plug-In  -->
<!DOCTYPE svg PUBLIC "-//W3C//DTD SVG 1.1//EN" "http://www.w3.org/Graphics/SVG/1.1/DTD/svg11.dtd" [
	<!ENTITY ns_flows "http://ns.adobe.com/Flows/1.0/">
]>
<svg version="1.1"
	 xmlns="http://www.w3.org/2000/svg" xmlns:xlink="http://www.w3.org/1999/xlink" xmlns:a="http://ns.adobe.com/AdobeSVGViewerExtensions/3.0/"
	 x="0px" y="0px" width="600px" height="486px" viewBox="-0.309082 48.3447266 600 486"
	 enable-background="new -0.309082 48.3447266 600 486" xml:space="preserve">
<defs>
</defs>
<path d="M599.3823242,104.7753906v34.2373047c0,2.1376953-1.359375,3.9414062-3.2617188,4.6333008v356.5083008
	c0,2.7304688-2.2119141,4.9423828-4.9423828,4.9423828H73.8613281v23.4755859c0,2.7304688-2.2114258,4.9423828-4.9418945,4.9423828
	H31.0249023c-2.730957,0-4.9423828-2.2119141-4.9423828-4.9423828v-23.4755859H8.2041016
	c-2.730957,0-4.9423828-2.2119141-4.9423828-4.9423828V143.6459961C1.3710938,142.9541016,0,141.1499023,0,139.0126953v-34.2373047
	c0-2.1376953,1.3710938-3.9414062,3.2617188-4.6333008V74.5288086c0-2.7304688,2.2114258-4.9423828,4.9423828-4.9423828h17.878418
	V54.1171875c0-2.7304688,2.2114258-4.9423828,4.9423828-4.9423828h37.8945312c2.7304688,0,4.9418945,2.2119141,4.9418945,4.9423828
	v15.4692383h517.3168945c2.7304688,0,4.9423828,2.2119141,4.9423828,4.9423828v25.6132812
	C598.0229492,100.8339844,599.3823242,102.6376953,599.3823242,104.7753906z M589.4975586,134.0703125v-24.3530273H73.8613281
	v24.3530273h26.0336914v-9.4394531c0-2.730957,2.2114258-4.9423828,4.9418945-4.9423828
	c2.7182617,0,4.9423828,2.2114258,4.9423828,4.9423828v9.4394531h9.1430664v-9.4394531
	c0-2.730957,2.2119141-4.9423828,4.9423828-4.9423828s4.9423828,2.2114258,4.9423828,4.9423828v9.4394531h9.1552734v-9.4394531
	c0-2.730957,2.2114258-4.9423828,4.9423828-4.9423828c2.7304688,0,4.9418945,2.2114258,4.9418945,4.9423828v9.4394531h9.1435547
	v-9.4394531c0-2.730957,2.2114258-4.9423828,4.9418945-4.9423828s4.9423828,2.2114258,4.9423828,4.9423828v9.4394531h9.1552734
	v-9.4394531c0-2.730957,2.2119141-4.9423828,4.9423828-4.9423828s4.9423828,2.2114258,4.9423828,4.9423828v9.4394531h9.1430664
	v-9.4394531c0-2.730957,2.2114258-4.9423828,4.9423828-4.9423828c2.7304688,0,4.9418945,2.2114258,4.9418945,4.9423828v9.4394531
	h9.1557617v-9.4394531c0-2.730957,2.2114258-4.9423828,4.9418945-4.9423828c2.730957,0,4.9423828,2.2114258,4.9423828,4.9423828
	v9.4394531H233.125v-9.4394531c0-2.730957,2.2241211-4.9423828,4.9423828-4.9423828
	c2.7304688,0,4.9423828,2.2114258,4.9423828,4.9423828v9.4394531h9.1552734v-9.4394531
	c0-2.730957,2.2119141-4.9423828,4.9423828-4.9423828s4.9423828,2.2114258,4.9423828,4.9423828v9.4394531h9.1552734v-9.4394531
	c0-2.730957,2.2114258-4.9423828,4.9423828-4.9423828c2.7182617,0,4.9418945,2.2114258,4.9418945,4.9423828v9.4394531h9.1435547
	v-9.4394531c0-2.730957,2.2114258-4.9423828,4.9418945-4.9423828c2.730957,0,4.9423828,2.2114258,4.9423828,4.9423828v9.4394531
	h9.1557617v-9.4394531c0-2.730957,2.2109375-4.9423828,4.9414062-4.9423828c2.7314453,0,4.9433594,2.2114258,4.9433594,4.9423828
	v9.4394531h9.1425781v-9.4394531c0-2.730957,2.2119141-4.9423828,4.9423828-4.9423828s4.9423828,2.2114258,4.9423828,4.9423828
	v9.4394531h9.1552734v-9.4394531c0-2.730957,2.2119141-4.9423828,4.9423828-4.9423828s4.9423828,2.2114258,4.9423828,4.9423828
	v9.4394531h9.1425781v-9.4394531c0-2.730957,2.2119141-4.9423828,4.9423828-4.9423828s4.9423828,2.2114258,4.9423828,4.9423828
	v9.4394531h9.1552734v-9.4394531c0-2.730957,2.2119141-4.9423828,4.9423828-4.9423828s4.9423828,2.2114258,4.9423828,4.9423828
	v9.4394531h9.1425781v-9.4394531c0-2.730957,2.2246094-4.9423828,4.9423828-4.9423828
	c2.7304688,0,4.9423828,2.2114258,4.9423828,4.9423828v9.4394531h9.1552734v-9.4394531
	c0-2.730957,2.2119141-4.9423828,4.9423828-4.9423828s4.9423828,2.2114258,4.9423828,4.9423828v9.4394531h9.1435547v-9.4394531
	c0-2.730957,2.2236328-4.9423828,4.9414062-4.9423828c2.7314453,0,4.9423828,2.2114258,4.9423828,4.9423828v9.4394531h9.15625
	v-9.4394531c0-2.730957,2.2109375-4.9423828,4.9414062-4.9423828c2.7314453,0,4.9423828,2.2114258,4.9423828,4.9423828v9.4394531
	h9.15625v-9.4394531c0-2.730957,2.2109375-4.9423828,4.9414062-4.9423828s4.9423828,2.2114258,4.9423828,4.9423828v9.4394531
	h9.1435547v-9.4394531c0-2.730957,2.2109375-4.9423828,4.9423828-4.9423828c2.7304688,0,4.9423828,2.2114258,4.9423828,4.9423828
	v9.4394531h9.1552734v-9.4394531c0-2.730957,2.2109375-4.9423828,4.9423828-4.9423828
	c2.7304688,0,4.9414062,2.2114258,4.9414062,4.9423828v9.4394531h9.1435547v-9.4394531
	c0-2.730957,2.2119141-4.9423828,4.9423828-4.9423828s4.9423828,2.2114258,4.9423828,4.9423828v9.4394531h9.1552734v-9.4394531
	c0-2.730957,2.2119141-4.9423828,4.9423828-4.9423828s4.9423828,2.2114258,4.9423828,4.9423828v9.4394531H589.4975586z
	 M586.2358398,495.2119141v-23.6484375H73.8613281v23.6484375H586.2358398z M586.2358398,461.6787109V143.9550781H73.8613281
	v317.7236328H586.2358398z M586.2358398,99.8330078V79.4711914H73.8613281v20.3618164H586.2358398z M63.9770508,523.6298828
	v-40.7734375H35.9667969v40.7734375H63.9770508z M63.9770508,472.9716797v-16.8896484h-9.8842773
	c-2.730957,0-4.9423828-2.2119141-4.9423828-4.9423828s2.2114258-4.9423828,4.9423828-4.9423828h9.8842773v-9.2167969h-9.8842773
	c-2.730957,0-4.9423828-2.2119141-4.9423828-4.9423828s2.2114258-4.9423828,4.9423828-4.9423828h9.8842773v-9.2294922h-9.8842773
	c-2.730957,0-4.9423828-2.2119141-4.9423828-4.9423828s2.2114258-4.9423828,4.9423828-4.9423828h9.8842773v-9.2294922h-9.8842773
	c-2.730957,0-4.9423828-2.2119141-4.9423828-4.9423828c0-2.7177734,2.2114258-4.9423828,4.9423828-4.9423828h9.8842773v-9.2167969
	h-9.8842773c-2.730957,0-4.9423828-2.2119141-4.9423828-4.9423828s2.2114258-4.9423828,4.9423828-4.9423828h9.8842773v-9.2294922
	h-9.8842773c-2.730957,0-4.9423828-2.2119141-4.9423828-4.9423828s2.2114258-4.9423828,4.9423828-4.9423828h9.8842773v-9.2294922
	h-9.8842773c-2.730957,0-4.9423828-2.2119141-4.9423828-4.9423828s2.2114258-4.9423828,4.9423828-4.9423828h9.8842773v-9.2167969
	h-9.8842773c-2.730957,0-4.9423828-2.2119141-4.9423828-4.9423828s2.2114258-4.9423828,4.9423828-4.9423828h9.8842773v-9.2294922
	h-9.8842773c-2.730957,0-4.9423828-2.2119141-4.9423828-4.9423828s2.2114258-4.9423828,4.9423828-4.9423828h9.8842773v-9.2294922
	h-9.8842773c-2.730957,0-4.9423828-2.2114258-4.9423828-4.9418945c0-2.7182617,2.2114258-4.9423828,4.9423828-4.9423828h9.8842773
	v-9.2172852h-9.8842773c-2.730957,0-4.9423828-2.2114258-4.9423828-4.9423828c0-2.7304688,2.2114258-4.9418945,4.9423828-4.9418945
	h9.8842773v-9.2299805h-9.8842773c-2.730957,0-4.9423828-2.2114258-4.9423828-4.9418945
	c0-2.730957,2.2114258-4.9423828,4.9423828-4.9423828h9.8842773v-9.2294922h-9.8842773
	c-2.730957,0-4.9423828-2.2119141-4.9423828-4.9423828c0-2.7182617,2.2114258-4.9423828,4.9423828-4.9423828h9.8842773v-9.2172852
	h-9.8842773c-2.730957,0-4.9423828-2.2114258-4.9423828-4.9423828c0-2.7304688,2.2114258-4.9418945,4.9423828-4.9418945h9.8842773
	v-9.2294922h-9.8842773c-2.730957,0-4.9423828-2.2119141-4.9423828-4.9423828s2.2114258-4.9423828,4.9423828-4.9423828h9.8842773
	v-9.2294922h-9.8842773c-2.730957,0-4.9423828-2.2119141-4.9423828-4.9423828s2.2114258-4.9418945,4.9423828-4.9418945h9.8842773
	v-9.2177734h-9.8842773c-2.730957,0-4.9423828-2.2114258-4.9423828-4.9418945c0-2.730957,2.2114258-4.9423828,4.9423828-4.9423828
	h9.8842773v-9.2294922h-9.8842773c-2.730957,0-4.9423828-2.2119141-4.9423828-4.9423828s2.2114258-4.9423828,4.9423828-4.9423828
	h9.8842773v-9.2294922h-9.8842773c-2.730957,0-4.9423828-2.2114258-4.9423828-4.9423828
	c0-2.7182617,2.2114258-4.9418945,4.9423828-4.9418945h9.8842773v-9.2172852h-9.8842773
	c-2.730957,0-4.9423828-2.2119141-4.9423828-4.9423828s2.2114258-4.9423828,4.9423828-4.9423828h9.8842773v-9.2294922h-9.8842773
	c-2.730957,0-4.9423828-2.2114258-4.9423828-4.9423828c0-2.7304688,2.2114258-4.9418945,4.9423828-4.9418945h9.8842773v-4.9423828
	H35.9667969v413.9121094H63.9770508L63.9770508,472.9716797z M26.0825195,495.2119141v-23.6484375H13.1459961v23.6484375H26.0825195
	z M26.0825195,461.6787109V143.9550781H13.1459961v317.7236328H26.0825195z M26.0825195,134.0703125v-24.3530273H9.8842773
	v24.3530273H26.0825195z M26.0825195,99.8330078V79.4711914H13.1459961v20.3618164H26.0825195z"/>
<path fill="#E6E6E6" d="M589.4975586,109.7172852v24.3530273h-22.8945312v-9.4394531
	c0-2.730957-2.2119141-4.9423828-4.9423828-4.9423828s-4.9423828,2.2114258-4.9423828,4.9423828v9.4394531h-9.1552734v-9.4394531
	c0-2.730957-2.2119141-4.9423828-4.9423828-4.9423828s-4.9423828,2.2114258-4.9423828,4.9423828v9.4394531h-9.1435547v-9.4394531
	c0-2.730957-2.2109375-4.9423828-4.9414062-4.9423828c-2.7314453,0-4.9423828,2.2114258-4.9423828,4.9423828v9.4394531h-9.1552734
	v-9.4394531c0-2.730957-2.2119141-4.9423828-4.9423828-4.9423828c-2.7314453,0-4.9423828,2.2114258-4.9423828,4.9423828v9.4394531
	h-9.1435547v-9.4394531c0-2.730957-2.2119141-4.9423828-4.9423828-4.9423828s-4.9414062,2.2114258-4.9414062,4.9423828v9.4394531
	h-9.15625v-9.4394531c0-2.730957-2.2109375-4.9423828-4.9423828-4.9423828c-2.7304688,0-4.9414062,2.2114258-4.9414062,4.9423828
	v9.4394531h-9.15625v-9.4394531c0-2.730957-2.2109375-4.9423828-4.9423828-4.9423828
	c-2.7177734,0-4.9414062,2.2114258-4.9414062,4.9423828v9.4394531h-9.1435547v-9.4394531
	c0-2.730957-2.2119141-4.9423828-4.9423828-4.9423828s-4.9423828,2.2114258-4.9423828,4.9423828v9.4394531h-9.1552734v-9.4394531
	c0-2.730957-2.2119141-4.9423828-4.9423828-4.9423828c-2.7177734,0-4.9423828,2.2114258-4.9423828,4.9423828v9.4394531h-9.1425781
	v-9.4394531c0-2.730957-2.2119141-4.9423828-4.9423828-4.9423828s-4.9423828,2.2114258-4.9423828,4.9423828v9.4394531h-9.1552734
	v-9.4394531c0-2.730957-2.2119141-4.9423828-4.9423828-4.9423828s-4.9423828,2.2114258-4.9423828,4.9423828v9.4394531h-9.1425781
	v-9.4394531c0-2.730957-2.2119141-4.9423828-4.9423828-4.9423828s-4.9423828,2.2114258-4.9423828,4.9423828v9.4394531h-9.1552734
	v-9.4394531c0-2.730957-2.2119141-4.9423828-4.9423828-4.9423828s-4.9423828,2.2114258-4.9423828,4.9423828v9.4394531h-9.1425781
	v-9.4394531c0-2.730957-2.2128906-4.9423828-4.9433594-4.9423828s-4.9414062,2.2114258-4.9414062,4.9423828v9.4394531h-9.1557617
	v-9.4394531c0-2.730957-2.2114258-4.9423828-4.9423828-4.9423828c-2.7304688,0-4.9418945,2.2114258-4.9418945,4.9423828v9.4394531
	h-9.1435547v-9.4394531c0-2.730957-2.2236328-4.9423828-4.9418945-4.9423828c-2.730957,0-4.9423828,2.2114258-4.9423828,4.9423828
	v9.4394531h-9.1552734v-9.4394531c0-2.730957-2.2119141-4.9423828-4.9423828-4.9423828s-4.9423828,2.2114258-4.9423828,4.9423828
	v9.4394531h-9.1552734v-9.4394531c0-2.730957-2.2119141-4.9423828-4.9423828-4.9423828
	c-2.7182617,0-4.9423828,2.2114258-4.9423828,4.9423828v9.4394531h-9.1430664v-9.4394531
	c0-2.730957-2.2114258-4.9423828-4.9423828-4.9423828c-2.7304688,0-4.9418945,2.2114258-4.9418945,4.9423828v9.4394531h-9.1557617
	v-9.4394531c0-2.730957-2.2114258-4.9423828-4.9418945-4.9423828c-2.730957,0-4.9423828,2.2114258-4.9423828,4.9423828v9.4394531
	h-9.1430664v-9.4394531c0-2.730957-2.2119141-4.9423828-4.9423828-4.9423828s-4.9423828,2.2114258-4.9423828,4.9423828v9.4394531
	h-9.1552734v-9.4394531c0-2.730957-2.2119141-4.9423828-4.9423828-4.9423828s-4.9423828,2.2114258-4.9423828,4.9423828v9.4394531
	h-9.1430664v-9.4394531c0-2.730957-2.2114258-4.9423828-4.9418945-4.9423828c-2.730957,0-4.9423828,2.2114258-4.9423828,4.9423828
	v9.4394531h-9.1552734v-9.4394531c0-2.730957-2.2119141-4.9423828-4.9423828-4.9423828s-4.9423828,2.2114258-4.9423828,4.9423828
	v9.4394531h-9.1430664v-9.4394531c0-2.730957-2.2241211-4.9423828-4.9423828-4.9423828
	c-2.7304688,0-4.9418945,2.2114258-4.9418945,4.9423828v9.4394531H73.8613281v-24.3530273H589.4975586z"/>
<rect x="73.8613281" y="471.5634766" fill="#2197C1" width="512.3745117" height="23.6484375"/>
<path display="none" fill="#29ABE2" d="M586.2358398,143.9550781v317.7236328H73.8613281V143.9550781H586.2358398z
	 M574.1762695,425.0322266c0.6679688-1.5322266,0.5195312-3.2861328-0.3955078-4.6826172
	c-0.9140625-1.3964844-2.4707031-2.2363281-4.1386719-2.2363281h-44.2578125c-1.9648438,0-3.7441406,1.1611328-4.5224609,2.9648438
	l-7.7714844,17.7919922c-0.6669922,1.5322266-0.5185547,3.2871094,0.3955078,4.6835938
	c0.9140625,1.3955078,2.4707031,2.2363281,4.1396484,2.2363281h44.2568359c1.9648438,0,3.7441406-1.1621094,4.5351562-2.9658203
	L574.1762695,425.0322266z M570.5561523,377.0058594V306.171875c0-2.7314453-2.2236328-4.9423828-4.9423828-4.9423828
	c-2.7304688,0-4.9414062,2.2109375-4.9414062,4.9423828v70.8339844c0,2.7304688,2.2109375,4.9423828,4.9414062,4.9423828
	C568.3325195,381.9482422,570.5561523,379.7363281,570.5561523,377.0058594z M567.1831055,250.2749023
	c2.3730469-0.3706055,4.1884766-2.3969727,4.1884766-4.8681641c0-2.730957-2.2109375-4.9423828-4.9423828-4.9423828h-1.1240234
	c-2.2861328-10.7617188-5.3496094-21.4243164-9.2050781-31.9516602c5.3378906-2.4956055,9.0566406-7.9072266,9.0566406-14.184082
	c0-6.8945312-4.4970703-12.7509766-10.7119141-14.8266602v-13.1708984c0-2.730957-2.2119141-4.9423828-4.9423828-4.9423828
	c-2.7177734,0-4.9423828,2.2114258-4.9423828,4.9423828v13.1708984
	c-6.2021484,2.0756836-10.7001953,7.9321289-10.7001953,14.8266602c0,6.2768555,3.7197266,11.6884766,9.0566406,14.184082
	c-3.8544922,10.5273438-6.9189453,21.1899414-9.2167969,31.9516602h-1.1123047
	c-2.7304688,0-4.9423828,2.2114258-4.9423828,4.9423828c0,2.4711914,1.8164062,4.4975586,4.1884766,4.8681641
	c-1.8896484,11.3051758-2.9277344,22.6972656-3.0878906,34.1259766c-0.0371094,2.7304688,2.1494141,4.9672852,4.8798828,5.0043945
	c0.0244141,0,0.0498047,0,0.0615234,0c2.7060547,0,4.9052734-2.1748047,4.9423828-4.8808594
	c0.1611328-11.4287109,1.2353516-22.8457031,3.2246094-34.1757812h15.3085938
	c1.9892578,11.3300781,3.0644531,22.7470703,3.2255859,34.1757812c0.0371094,2.7060547,2.2363281,4.8808594,4.9414062,4.8808594
	c0.0126953,0,0.0371094,0,0.0625,0c2.7304688-0.0371094,4.9169922-2.2739258,4.8798828-5.0043945
	C570.1118164,272.972168,569.0737305,261.5800781,567.1831055,250.2749023z M554.9018555,377.0058594V306.171875
	c0-2.7314453-2.2119141-4.9423828-4.9423828-4.9423828s-4.9423828,2.2109375-4.9423828,4.9423828v70.8339844
	c0,2.7304688,2.2119141,4.9423828,4.9423828,4.9423828S554.9018555,379.7363281,554.9018555,377.0058594z M539.2475586,377.0058594
	V306.171875c0-2.7314453-2.2119141-4.9423828-4.9423828-4.9423828s-4.9423828,2.2109375-4.9423828,4.9423828v70.8339844
	c0,2.7304688,2.2119141,4.9423828,4.9423828,4.9423828S539.2475586,379.7363281,539.2475586,377.0058594z M504.8989258,427.9726562
	v-183.418457c0-2.2241211-1.4824219-4.1762695-3.6328125-4.7695312c-2.1376953-0.5927734-4.4111328,0.3339844-5.5478516,2.2368164
	c-6.3134766,10.6132812-17.890625,17.1987305-30.2333984,17.1987305H208.0307617
	c-12.3305664,0-23.9204102-6.5854492-30.2216797-17.1987305c-1.1367188-1.902832-3.4101562-2.8295898-5.5600586-2.2368164
	c-2.137207,0.5932617-3.6323242,2.5454102-3.6323242,4.7695312v185.7045898c0,4.546875,1.5566406,9.0195312,4.3613281,12.5898438
	c6.2890625,7.9941406,15.7163086,12.5664062,25.8725586,12.5664062h278.1118164
	c8.6992188,0,16.7792969-3.9169922,22.1660156-10.7617188C502.8481445,439.9208984,504.8989258,433.9902344,504.8989258,427.9726562
	z M475.0102539,243.5654297v-76.6044922c0-2.7304688-2.2236328-4.9423828-4.9414062-4.9423828H354.7416992
	c-2.7304688,0-4.9423828,2.2119141-4.9423828,4.9423828v76.6044922c0,2.730957,2.2119141,4.9423828,4.9423828,4.9423828h115.3271484
	C472.7866211,248.5078125,475.0102539,246.2963867,475.0102539,243.5654297z M330.2895508,169.4570312
	c1.6064453-1.3222656,2.2119141-3.5214844,1.4951172-5.4736328c-0.7041016-1.9648438-2.5576172-3.2744141-4.6455078-3.2744141
	H140.4458008c-2.0878906,0-3.9414062,1.3095703-4.6582031,3.2744141c-0.7041016,1.9521484-0.0986328,4.1513672,1.5078125,5.4736328
	l93.3461914,77.1479492c0.9145508,0.7539062,2.0385742,1.1245117,3.1508789,1.1245117
	c1.1118164,0,2.2363281-0.3706055,3.1503906-1.1245117L330.2895508,169.4570312z M153.5302734,305.4921875
	c0-2.7304688-2.2114258-4.9423828-4.9418945-4.9423828h-8.340332v-16.7915039c0-1.3837891-0.5805664-2.7182617-1.605957-3.6450195
	c-1.0380859-0.9389648-2.3969727-1.4082031-3.793457-1.2724609l-38.8950195,3.6201172
	c-2.5454102,0.2348633-4.4853516,2.3725586-4.4853516,4.9174805v11.0581055c0,2.7304688,2.2119141,4.9423828,4.9423828,4.9423828
	h20.6708984v7.4384766H96.3979492c-2.7304688,0-4.9418945,2.2119141-4.9418945,4.9423828v11.0458984
	c0,2.5576172,1.9521484,4.6826172,4.4848633,4.9169922l21.140625,1.9775391v22.5117188
	c0,2.7304688,2.2114258,4.9423828,4.9418945,4.9423828h1.1000977v59.046875c0,2.7304688,2.2114258,4.9423828,4.9418945,4.9423828
	s4.9423828-2.2119141,4.9423828-4.9423828v-59.046875h2.2983398c2.7304688,0,4.9418945-2.2119141,4.9418945-4.9423828v-28.875
	h8.340332c2.7304688,0,4.9418945-2.2119141,4.9418945-4.9423828c0-2.71875-2.2114258-4.9423828-4.9418945-4.9423828h-8.340332
	v-7.0175781h8.340332C151.3188477,310.4345703,153.5302734,308.2226562,153.5302734,305.4921875z"/>
<rect x="73.8613281" y="79.4711914" fill="#29ABE2" width="512.3745117" height="20.3618164"/>
<path d="M573.7817383,420.3496094c0.9140625,1.3964844,1.0625,3.1503906,0.3945312,4.6826172l-7.7587891,17.7919922
	c-0.7910156,1.8037109-2.5703125,2.9658203-4.5351562,2.9658203h-44.2568359c-1.6679688,0-3.2255859-0.8408203-4.1396484-2.2363281
	c-0.9140625-1.3964844-1.0625-3.1513672-0.3955078-4.6835938l7.7714844-17.7919922
	c0.7792969-1.8037109,2.5576172-2.9648438,4.5224609-2.9648438h44.2578125
	C571.3100586,418.1132812,572.8666992,418.953125,573.7817383,420.3496094z M558.6459961,435.9052734l3.4589844-7.9072266
	h-8.0556641l-3.4472656,7.9072266H558.6459961z M539.815918,435.9052734l3.4589844-7.9072266H528.621582l-3.4472656,7.9072266
	H539.815918z"/>
<path d="M570.5561523,306.171875v70.8339844c0,2.7304688-2.2236328,4.9423828-4.9423828,4.9423828
	c-2.7304688,0-4.9414062-2.2119141-4.9414062-4.9423828V306.171875c0-2.7314453,2.2109375-4.9423828,4.9414062-4.9423828
	C568.3325195,301.2294922,570.5561523,303.4404297,570.5561523,306.171875z"/>
<path d="M571.371582,245.4067383c0,2.4711914-1.8154297,4.4975586-4.1884766,4.8681641
	c1.890625,11.3051758,2.9287109,22.6972656,3.0888672,34.1259766c0.0371094,2.7304688-2.1494141,4.9672852-4.8798828,5.0043945
	c-0.0253906,0-0.0498047,0-0.0625,0c-2.7050781,0-4.9042969-2.1748047-4.9414062-4.8808594
	c-0.1611328-11.4287109-1.2363281-22.8457031-3.2255859-34.1757812h-15.3085938
	c-1.9892578,11.3300781-3.0634766,22.7470703-3.2246094,34.1757812c-0.0371094,2.7060547-2.2363281,4.8808594-4.9423828,4.8808594
	c-0.0117188,0-0.0371094,0-0.0615234,0c-2.7304688-0.0371094-4.9169922-2.2739258-4.8798828-5.0043945
	c0.1601562-11.4287109,1.1982422-22.8208008,3.0888672-34.1259766c-2.3730469-0.3706055-4.1894531-2.3969727-4.1894531-4.8681641
	c0-2.730957,2.2119141-4.9423828,4.9423828-4.9423828h1.1123047c2.2978516-10.7617188,5.3623047-21.4243164,9.2167969-31.9516602
	c-5.3369141-2.4956055-9.0556641-7.9072266-9.0556641-14.184082c0-6.8945312,4.4970703-12.7509766,10.6992188-14.8266602
	v-13.1708984c0-2.730957,2.2246094-4.9423828,4.9423828-4.9423828c2.7304688,0,4.9423828,2.2114258,4.9423828,4.9423828v13.1708984
	c6.2148438,2.0756836,10.7119141,7.9321289,10.7119141,14.8266602c0,6.2768555-3.71875,11.6884766-9.0566406,14.184082
	c3.8554688,10.5273438,6.9199219,21.1899414,9.2050781,31.9516602h1.125
	C569.1606445,240.4643555,571.371582,242.6757812,571.371582,245.4067383z M543.8188477,240.4643555h11.3798828
	c-1.5449219-6.980957-3.4472656-13.9125977-5.6962891-20.8066406
	C547.2661133,226.5517578,545.3637695,233.4833984,543.8188477,240.4643555z M555.2729492,194.3286133
	c0-3.175293-2.5830078-5.7578125-5.7705078-5.7578125c-3.1757812,0-5.7578125,2.5825195-5.7578125,5.7578125
	c0,3.1879883,2.5820312,5.7700195,5.7578125,5.7700195C552.6899414,200.0986328,555.2729492,197.5166016,555.2729492,194.3286133z"
	/>
<polygon fill="#E8653D" points="562.1049805,427.9980469 558.6459961,435.9052734 550.6020508,435.9052734 554.0493164,427.9980469 
	"/>
<path display="none" fill="#29ABE2" d="M555.1987305,240.4643555h-11.3798828
	c1.5449219-6.980957,3.4472656-13.9125977,5.6835938-20.8066406
	C551.7514648,226.5517578,553.6538086,233.4833984,555.1987305,240.4643555z"/>
<path display="none" d="M554.9018555,306.171875v70.8339844c0,2.7304688-2.2119141,4.9423828-4.9423828,4.9423828
	s-4.9423828-2.2119141-4.9423828-4.9423828V306.171875c0-2.7314453,2.2119141-4.9423828,4.9423828-4.9423828
	S554.9018555,303.4404297,554.9018555,306.171875z"/>
<path fill="#29ABE2" d="M549.5024414,188.5708008c3.1875,0,5.7705078,2.5825195,5.7705078,5.7578125
	c0,3.1879883-2.5830078,5.7700195-5.7705078,5.7700195c-3.1757812,0-5.7578125-2.5820312-5.7578125-5.7700195
	C543.7446289,191.1533203,546.3276367,188.5708008,549.5024414,188.5708008z"/>
<polygon fill="#2197C1" points="543.2749023,427.9980469 539.815918,435.9052734 525.1743164,435.9052734 528.621582,427.9980469 
	"/>
<path display="none" d="M539.2475586,306.171875v70.8339844c0,2.7304688-2.2119141,4.9423828-4.9423828,4.9423828
	s-4.9423828-2.2119141-4.9423828-4.9423828V306.171875c0-2.7314453,2.2119141-4.9423828,4.9423828-4.9423828
	S539.2475586,303.4404297,539.2475586,306.171875z"/>
<path display="none" d="M504.8989258,244.5541992v183.418457c0,6.0175781-2.0507812,11.9482422-5.7705078,16.6806641
	c-5.3867188,6.8447266-13.4667969,10.7617188-22.1660156,10.7617188H198.8505859
	c-10.15625,0-19.5834961-4.5722656-25.8725586-12.5664062c-2.8046875-3.5703125-4.3613281-8.0429688-4.3613281-12.5898438
	V244.5541992c0-2.2241211,1.4951172-4.1762695,3.6323242-4.7695312c2.1499023-0.5927734,4.4233398,0.3334961,5.5600586,2.2363281
	c6.3012695,10.6137695,17.8911133,17.1992188,30.2216797,17.1992188h257.4541016
	c12.3427734,0,23.9199219-6.5854492,30.2333984-17.1992188c1.1367188-1.902832,3.4101562-2.8291016,5.5478516-2.2363281
	C503.4165039,240.3779297,504.8989258,242.3300781,504.8989258,244.5541992z M495.0141602,427.9726562V258.0463867
	c-8.0927734,7.0058594-18.5703125,11.0581055-29.5292969,11.0581055H208.0307617
	c-10.9467773,0-21.4365234-4.0522461-29.5297852-11.0581055v172.2124023c0,2.3476562,0.8032227,4.6455078,2.2490234,6.4863281
	c4.3984375,5.5849609,10.9960938,8.7851562,18.1005859,8.7851562h278.1118164
	c5.6464844,0,10.8984375-2.5449219,14.3945312-6.9804688C493.7172852,435.546875,495.0141602,431.7910156,495.0141602,427.9726562z"
	/>
<path display="none" d="M475.0102539,166.9609375v76.6044922c0,2.730957-2.2236328,4.9423828-4.9414062,4.9423828H354.7416992
	c-2.7304688,0-4.9423828-2.2114258-4.9423828-4.9423828v-76.6044922c0-2.7304688,2.2119141-4.9423828,4.9423828-4.9423828
	h115.3271484C472.7866211,162.0185547,475.0102539,164.2304688,475.0102539,166.9609375z M465.1264648,238.6235352v-66.7202148
	H359.6831055v66.7202148H465.1264648z"/>
<path fill="#666666" d="M465.1264648,171.9033203v66.7202148H359.6831055v-66.7202148H465.1264648z M459.355957,182.6152344
	c0-2.7304688-2.2119141-4.9418945-4.9423828-4.9418945h-84.0175781c-2.7304688,0-4.9423828,2.2114258-4.9423828,4.9418945
	c0,2.730957,2.2119141,4.9423828,4.9423828,4.9423828h84.0175781
	C457.144043,187.5576172,459.355957,185.3461914,459.355957,182.6152344z M458.269043,201.2724609
	c0-2.7304688-2.2119141-4.9423828-4.9423828-4.9423828h-9.09375c-2.7304688,0-4.9423828,2.2119141-4.9423828,4.9423828
	s2.2119141,4.9423828,4.9423828,4.9423828h9.09375C456.0571289,206.2148438,458.269043,204.0029297,458.269043,201.2724609z
	 M458.269043,214.4560547c0-2.730957-2.2119141-4.9423828-4.9423828-4.9423828h-9.09375
	c-2.7304688,0-4.9423828,2.2114258-4.9423828,4.9423828c0,2.7304688,2.2119141,4.9418945,4.9423828,4.9418945h9.09375
	C456.0571289,219.3979492,458.269043,217.1865234,458.269043,214.4560547z M458.269043,227.6269531
	c0-2.7182617-2.2119141-4.9423828-4.9423828-4.9423828h-9.09375c-2.7304688,0-4.9423828,2.2241211-4.9423828,4.9423828
	c0,2.7304688,2.2119141,4.9423828,4.9423828,4.9423828h9.09375
	C456.0571289,232.5693359,458.269043,230.3574219,458.269043,227.6269531z M433.7426758,201.2724609
	c0-2.7304688-2.2109375-4.9423828-4.9423828-4.9423828h-9.09375c-2.7304688,0-4.9414062,2.2119141-4.9414062,4.9423828
	s2.2109375,4.9423828,4.9414062,4.9423828h9.09375C431.5317383,206.2148438,433.7426758,204.0029297,433.7426758,201.2724609z
	 M433.7426758,214.4560547c0-2.730957-2.2109375-4.9423828-4.9423828-4.9423828h-9.09375
	c-2.7304688,0-4.9414062,2.2114258-4.9414062,4.9423828c0,2.7304688,2.2109375,4.9418945,4.9414062,4.9418945h9.09375
	C431.5317383,219.3979492,433.7426758,217.1865234,433.7426758,214.4560547z M433.7426758,227.6269531
	c0-2.7182617-2.2109375-4.9423828-4.9423828-4.9423828h-9.09375c-2.7304688,0-4.9414062,2.2241211-4.9414062,4.9423828
	c0,2.7304688,2.2109375,4.9423828,4.9414062,4.9423828h9.09375
	C431.5317383,232.5693359,433.7426758,230.3574219,433.7426758,227.6269531z M409.2172852,201.2724609
	c0-2.7304688-2.2119141-4.9423828-4.9423828-4.9423828h-9.09375c-2.7304688,0-4.9423828,2.2119141-4.9423828,4.9423828
	s2.2119141,4.9423828,4.9423828,4.9423828h9.09375C407.0053711,206.2148438,409.2172852,204.0029297,409.2172852,201.2724609z
	 M409.2172852,214.4560547c0-2.730957-2.2119141-4.9423828-4.9423828-4.9423828h-9.09375
	c-2.7304688,0-4.9423828,2.2114258-4.9423828,4.9423828c0,2.7304688,2.2119141,4.9418945,4.9423828,4.9418945h9.09375
	C407.0053711,219.3979492,409.2172852,217.1865234,409.2172852,214.4560547z M409.2172852,227.6269531
	c0-2.7182617-2.2119141-4.9423828-4.9423828-4.9423828h-9.09375c-2.7304688,0-4.9423828,2.2241211-4.9423828,4.9423828
	c0,2.7304688,2.2119141,4.9423828,4.9423828,4.9423828h9.09375
	C407.0053711,232.5693359,409.2172852,230.3574219,409.2172852,227.6269531z M384.690918,201.2724609
	c0-2.7304688-2.2109375-4.9423828-4.9414062-4.9423828h-9.09375c-2.7314453,0-4.9423828,2.2119141-4.9423828,4.9423828
	s2.2109375,4.9423828,4.9423828,4.9423828h9.09375C382.4799805,206.2148438,384.690918,204.0029297,384.690918,201.2724609z
	 M384.690918,214.4560547c0-2.730957-2.2109375-4.9423828-4.9414062-4.9423828h-9.09375
	c-2.7314453,0-4.9423828,2.2114258-4.9423828,4.9423828c0,2.7304688,2.2109375,4.9418945,4.9423828,4.9418945h9.09375
	C382.4799805,219.3979492,384.690918,217.1865234,384.690918,214.4560547z M384.690918,227.6269531
	c0-2.7182617-2.2109375-4.9423828-4.9414062-4.9423828h-9.09375c-2.7314453,0-4.9423828,2.2241211-4.9423828,4.9423828
	c0,2.7304688,2.2109375,4.9423828,4.9423828,4.9423828h9.09375
	C382.4799805,232.5693359,384.690918,230.3574219,384.690918,227.6269531z"/>
<path display="none" d="M454.4135742,177.6733398c2.7304688,0,4.9423828,2.2114258,4.9423828,4.9418945
	c0,2.730957-2.2119141,4.9423828-4.9423828,4.9423828h-84.0175781c-2.7304688,0-4.9423828-2.2114258-4.9423828-4.9423828
	c0-2.7304688,2.2119141-4.9418945,4.9423828-4.9418945H454.4135742z"/>
<path d="M453.3266602,196.3300781c2.7304688,0,4.9423828,2.2119141,4.9423828,4.9423828s-2.2119141,4.9423828-4.9423828,4.9423828
	h-9.09375c-2.7304688,0-4.9423828-2.2119141-4.9423828-4.9423828s2.2119141-4.9423828,4.9423828-4.9423828H453.3266602z"/>
<path d="M453.3266602,209.5136719c2.7304688,0,4.9423828,2.2114258,4.9423828,4.9423828
	c0,2.7304688-2.2119141,4.9418945-4.9423828,4.9418945h-9.09375c-2.7304688,0-4.9423828-2.2114258-4.9423828-4.9418945
	c0-2.730957,2.2119141-4.9423828,4.9423828-4.9423828H453.3266602z"/>
<path d="M453.3266602,222.6845703c2.7304688,0,4.9423828,2.2241211,4.9423828,4.9423828
	c0,2.7304688-2.2119141,4.9423828-4.9423828,4.9423828h-9.09375c-2.7304688,0-4.9423828-2.2119141-4.9423828-4.9423828
	c0-2.7182617,2.2119141-4.9423828,4.9423828-4.9423828H453.3266602z"/>
<path d="M428.800293,196.3300781c2.7314453,0,4.9423828,2.2119141,4.9423828,4.9423828s-2.2109375,4.9423828-4.9423828,4.9423828
	h-9.09375c-2.7304688,0-4.9414062-2.2119141-4.9414062-4.9423828s2.2109375-4.9423828,4.9414062-4.9423828H428.800293z"/>
<path d="M428.800293,209.5136719c2.7314453,0,4.9423828,2.2114258,4.9423828,4.9423828
	c0,2.7304688-2.2109375,4.9418945-4.9423828,4.9418945h-9.09375c-2.7304688,0-4.9414062-2.2114258-4.9414062-4.9418945
	c0-2.730957,2.2109375-4.9423828,4.9414062-4.9423828H428.800293z"/>
<path d="M428.800293,222.6845703c2.7314453,0,4.9423828,2.2241211,4.9423828,4.9423828
	c0,2.7304688-2.2109375,4.9423828-4.9423828,4.9423828h-9.09375c-2.7304688,0-4.9414062-2.2119141-4.9414062-4.9423828
	c0-2.7182617,2.2109375-4.9423828,4.9414062-4.9423828H428.800293z"/>
<path display="none" d="M421.8325195,352.3691406c2.2363281,1.5693359,2.7792969,4.6455078,1.2109375,6.8818359
	c-0.9638672,1.3710938-2.4960938,2.1132812-4.0527344,2.1132812c-0.9765625,0-1.9648438-0.296875-2.8300781-0.9023438
	l-65.9042969-46.1230469c-2.2236328-1.5693359-2.7802734-4.6464844-1.2109375-6.8828125s4.6455078-2.7792969,6.8818359-1.2109375
	L421.8325195,352.3691406z"/>
<path display="none" d="M418.1625977,371.5322266c2.4335938,1.2363281,3.4101562,4.2138672,2.1748047,6.6474609
	l-10.7871094,21.3007812c-0.5927734,1.1738281-1.6308594,2.0634766-2.8789062,2.4716797
	c-0.4941406,0.1601562-1.0126953,0.234375-1.53125,0.234375c-0.7783203,0-1.5449219-0.1728516-2.2363281-0.53125
	l-156.5087891-79.2978516c-2.434082-1.2353516-3.4101562-4.2011719-2.1743164-6.6347656l10.7988281-21.3134766
	c0.5927734-1.1738281,1.6181641-2.0507812,2.8662109-2.4589844s2.6069336-0.3085938,3.7807617,0.2841797L418.1625977,371.5322266z
	 M402.965332,390.609375l6.3261719-12.4912109l-8.3154297-4.2128906l-1.8535156,3.6816406
	c-0.8769531,1.7177734-2.6074219,2.7060547-4.4111328,2.7060547c-0.7539062,0-1.5195312-0.1728516-2.2363281-0.53125
	c-2.4335938-1.2363281-3.4101562-4.2138672-2.1748047-6.6474609l1.8662109-3.6699219l-8.6494141-4.3857422l-1.8652344,3.6689453
	c-0.8652344,1.7177734-2.6074219,2.71875-4.4111328,2.71875c-0.7539062,0-1.5068359-0.1728516-2.2236328-0.5439453
	c-2.4345703-1.2226562-3.4101562-4.2011719-2.1748047-6.6347656l1.8535156-3.6816406l-8.6494141-4.3740234l-1.8535156,3.6689453
	c-0.8769531,1.7177734-2.6064453,2.7060547-4.4101562,2.7060547c-0.7539062,0-1.5205078-0.1601562-2.2363281-0.53125
	c-2.4345703-1.2353516-3.4101562-4.2011719-2.1748047-6.6347656l1.8652344-3.6816406l-8.6484375-4.3740234l-1.8662109,3.6689453
	c-0.8642578,1.7177734-2.6064453,2.7060547-4.4111328,2.7060547c-0.7529297,0-1.5068359-0.1728516-2.2236328-0.53125
	c-2.4335938-1.2353516-3.4101562-4.2128906-2.1748047-6.6474609l1.8535156-3.6689453l-8.6484375-4.3867188l-1.8535156,3.6826172
	c-0.8769531,1.7167969-2.6074219,2.7050781-4.4111328,2.7050781c-0.7539062,0-1.5195312-0.1728516-2.2363281-0.53125
	c-2.4335938-1.2353516-3.4101562-4.2128906-2.1748047-6.6464844l1.8662109-3.6699219l-8.6494141-4.3867188l-1.8662109,3.6826172
	c-0.8642578,1.7167969-2.6064453,2.7060547-4.4101562,2.7060547c-0.7539062,0-1.5078125-0.1738281-2.2246094-0.5439453
	c-2.4335938-1.2236328-3.4101562-4.2011719-2.1738281-6.6347656l1.8535156-3.6826172l-8.6494141-4.3740234l-1.8535156,3.6699219
	c-0.8769531,1.7177734-2.6069336,2.71875-4.4106445,2.71875c-0.7539062,0-1.5200195-0.1738281-2.2363281-0.5439453
	c-2.434082-1.2353516-3.4101562-4.2011719-2.1748047-6.6347656l1.8657227-3.6826172l-8.6489258-4.3740234l-1.8657227,3.6699219
	c-0.8647461,1.7177734-2.6069336,2.7060547-4.4106445,2.7060547c-0.7539062,0-1.5073242-0.1728516-2.2241211-0.53125
	c-2.434082-1.2353516-3.4101562-4.2011719-2.1748047-6.6474609l1.8535156-3.6699219l-8.3027344-4.2128906l-6.3261719,12.4912109
	L402.965332,390.609375z"/>
<path display="none" fill="#F9F1A5" d="M409.2915039,378.1181641l-6.3261719,12.4912109l-147.6865234-74.8378906
	l6.3261719-12.4912109l8.3027344,4.2128906l-1.8535156,3.6699219c-1.2353516,2.4462891-0.2592773,5.4121094,2.1748047,6.6474609
	c0.7167969,0.3583984,1.4702148,0.53125,2.2241211,0.53125c1.8037109,0,3.5458984-0.9882812,4.4106445-2.7060547
	l1.8657227-3.6699219l8.6489258,4.3740234l-1.8657227,3.6826172c-1.2353516,2.4335938-0.2592773,5.3994141,2.1748047,6.6347656
	c0.7167969,0.3701172,1.4829102,0.5429688,2.2363281,0.5429688c1.8041992,0,3.5336914-1,4.4111328-2.7177734l1.8530273-3.6699219
	l8.6494141,4.3740234l-1.8535156,3.6826172c-1.2363281,2.4335938-0.2597656,5.4111328,2.1738281,6.6347656
	c0.7167969,0.3701172,1.4707031,0.5429688,2.2246094,0.5429688c1.8037109,0,3.5458984-0.9882812,4.4111328-2.7050781
	l1.8662109-3.6826172l8.6484375,4.3867188l-1.8652344,3.6689453c-1.2363281,2.4345703-0.2597656,5.4121094,2.1738281,6.6474609
	c0.7167969,0.3583984,1.4824219,0.53125,2.2363281,0.53125c1.8037109,0,3.5341797-0.9882812,4.4111328-2.7060547
	l1.8535156-3.6816406l8.6484375,4.3867188l-1.8535156,3.6689453c-1.2353516,2.4345703-0.2587891,5.4121094,2.1748047,6.6474609
	c0.7167969,0.3583984,1.4707031,0.53125,2.2246094,0.53125c1.8037109,0,3.5458984-0.9882812,4.4101562-2.7060547
	l1.8662109-3.6689453l8.6484375,4.3740234l-1.8652344,3.6816406c-1.2353516,2.4335938-0.2597656,5.3994141,2.1748047,6.6347656
	c0.7158203,0.3710938,1.4824219,0.53125,2.2363281,0.53125c1.8037109,0,3.5332031-0.9882812,4.4101562-2.7060547
	l1.8535156-3.6689453l8.6494141,4.3730469l-1.8535156,3.6826172c-1.2353516,2.4335938-0.2597656,5.4111328,2.1748047,6.6347656
	c0.7167969,0.3710938,1.4697266,0.5439453,2.2236328,0.5439453c1.8037109,0,3.5458984-1.0009766,4.4111328-2.71875
	l1.8652344-3.6689453l8.6494141,4.3857422l-1.8662109,3.6699219c-1.2353516,2.4335938-0.2587891,5.4111328,2.1748047,6.6474609
	c0.7167969,0.3574219,1.4833984,0.53125,2.2363281,0.53125c1.8037109,0,3.5341797-0.9892578,4.4111328-2.7060547
	l1.8535156-3.6826172L409.2915039,378.1181641z"/>
<path d="M404.2749023,196.3300781c2.7304688,0,4.9423828,2.2119141,4.9423828,4.9423828s-2.2119141,4.9423828-4.9423828,4.9423828
	h-9.09375c-2.7304688,0-4.9423828-2.2119141-4.9423828-4.9423828s2.2119141-4.9423828,4.9423828-4.9423828H404.2749023z"/>
<path d="M404.2749023,209.5136719c2.7304688,0,4.9423828,2.2114258,4.9423828,4.9423828
	c0,2.7304688-2.2119141,4.9418945-4.9423828,4.9418945h-9.09375c-2.7304688,0-4.9423828-2.2114258-4.9423828-4.9418945
	c0-2.730957,2.2119141-4.9423828,4.9423828-4.9423828H404.2749023z"/>
<path d="M404.2749023,222.6845703c2.7304688,0,4.9423828,2.2241211,4.9423828,4.9423828
	c0,2.7304688-2.2119141,4.9423828-4.9423828,4.9423828h-9.09375c-2.7304688,0-4.9423828-2.2119141-4.9423828-4.9423828
	c0-2.7182617,2.2119141-4.9423828,4.9423828-4.9423828H404.2749023z"/>
<path d="M379.7495117,196.3300781c2.7304688,0,4.9414062,2.2119141,4.9414062,4.9423828s-2.2109375,4.9423828-4.9414062,4.9423828
	h-9.09375c-2.7314453,0-4.9423828-2.2119141-4.9423828-4.9423828s2.2109375-4.9423828,4.9423828-4.9423828H379.7495117z"/>
<path d="M379.7495117,209.5136719c2.7304688,0,4.9414062,2.2114258,4.9414062,4.9423828
	c0,2.7304688-2.2109375,4.9418945-4.9414062,4.9418945h-9.09375c-2.7314453,0-4.9423828-2.2114258-4.9423828-4.9418945
	c0-2.730957,2.2109375-4.9423828,4.9423828-4.9423828H379.7495117z"/>
<path d="M379.7495117,222.6845703c2.7304688,0,4.9414062,2.2241211,4.9414062,4.9423828
	c0,2.7304688-2.2109375,4.9423828-4.9414062,4.9423828h-9.09375c-2.7314453,0-4.9423828-2.2119141-4.9423828-4.9423828
	c0-2.7182617,2.2109375-4.9423828,4.9423828-4.9423828H379.7495117z"/>
<polygon display="none" fill="#29ABE2" points="258.4418945,190.3623047 233.7924805,210.7368164 209.1430664,190.3623047 "/>
<path d="M148.5883789,300.5498047c2.7304688,0,4.9418945,2.2119141,4.9418945,4.9423828s-2.2114258,4.9423828-4.9418945,4.9423828
	h-8.340332v7.0175781h8.340332c2.7304688,0,4.9418945,2.2236328,4.9418945,4.9423828
	c0,2.7304688-2.2114258,4.9423828-4.9418945,4.9423828h-8.340332v28.875c0,2.7304688-2.2114258,4.9423828-4.9418945,4.9423828
	h-2.2983398v59.046875c0,2.7304688-2.2119141,4.9423828-4.9423828,4.9423828s-4.9418945-2.2119141-4.9418945-4.9423828v-59.046875
	h-1.1000977c-2.7304688,0-4.9418945-2.2119141-4.9418945-4.9423828v-22.5117188l-21.140625-1.9775391
	c-2.5327148-0.234375-4.4848633-2.359375-4.4848633-4.9169922v-11.0458984c0-2.7314453,2.2114258-4.9423828,4.9418945-4.9423828
	h20.6835938v-7.4384766H96.4106445c-2.7304688,0-4.9423828-2.2119141-4.9423828-4.9423828V287.378418
	c0-2.5449219,1.9399414-4.6826172,4.4848633-4.9174805l38.8955078-3.6201172
	c1.3964844-0.1357422,2.7553711,0.3334961,3.793457,1.2724609c1.0253906,0.9267578,1.605957,2.2612305,1.605957,3.6450195
	v16.7915039H148.5883789L148.5883789,300.5498047z M130.3637695,351.2695312v-16.3339844l-3.3979492-0.3212891v16.6552734
	H130.3637695z M130.3637695,325.0009766v-4.2998047H101.340332v1.5947266L130.3637695,325.0009766z M130.3637695,310.8173828
	v-21.6347656l-29.0112305,2.7060547v1.6064453h20.6708984c2.730957,0,4.9423828,2.2109375,4.9423828,4.9414062v12.3808594
	H130.3637695z"/>
<polygon fill="#B3B3B3" points="130.3637695,334.9355469 130.3637695,351.2695312 126.9658203,351.2695312 126.9658203,334.6142578 
	"/>
<polygon fill="#B3B3B3" points="130.3637695,320.7011719 130.3637695,325.0009766 101.340332,322.2958984 101.340332,320.7011719 
	"/>
<path fill="#B3B3B3" d="M130.3637695,289.1826172v21.6347656h-3.3979492v-12.3808594
	c0-2.7304688-2.2114258-4.9423828-4.9423828-4.9423828h-20.6708984v-1.6054688L130.3637695,289.1826172z"/>
<rect x="35.9667969" y="482.8564453" fill="#B3B3B3" width="28.0102539" height="40.7734375"/>
<path fill="#E6E6E6" d="M63.9770508,456.0820312v16.8896484H35.9667969V59.0595703h28.0102539v4.9423828h-9.8842773
	c-2.730957,0-4.9423828,2.2114258-4.9423828,4.9423828c0,2.7304688,2.2114258,4.9418945,4.9423828,4.9418945h9.8842773v9.2294922
	h-9.8842773c-2.730957,0-4.9423828,2.2119141-4.9423828,4.9423828s2.2114258,4.9423828,4.9423828,4.9423828h9.8842773v9.2172852
	h-9.8842773c-2.730957,0-4.9423828,2.2241211-4.9423828,4.9423828c0,2.7304688,2.2114258,4.9418945,4.9423828,4.9418945h9.8842773
	v9.2299805h-9.8842773c-2.730957,0-4.9423828,2.2114258-4.9423828,4.9418945s2.2114258,4.9423828,4.9423828,4.9423828h9.8842773
	v9.2294922h-9.8842773c-2.730957,0-4.9423828,2.2119141-4.9423828,4.9423828s2.2114258,4.9423828,4.9423828,4.9423828h9.8842773
	v9.2172852h-9.8842773c-2.730957,0-4.9423828,2.2114258-4.9423828,4.9418945c0,2.730957,2.2114258,4.9423828,4.9423828,4.9423828
	h9.8842773v9.2294922h-9.8842773c-2.730957,0-4.9423828,2.2119141-4.9423828,4.9423828s2.2114258,4.9423828,4.9423828,4.9423828
	h9.8842773v9.2294922h-9.8842773c-2.730957,0-4.9423828,2.2114258-4.9423828,4.9423828
	c0,2.7304688,2.2114258,4.9418945,4.9423828,4.9418945h9.8842773v9.2172852h-9.8842773
	c-2.730957,0-4.9423828,2.2241211-4.9423828,4.9423828c0,2.7304688,2.2114258,4.9423828,4.9423828,4.9423828h9.8842773v9.2294922
	h-9.8842773c-2.730957,0-4.9423828,2.2114258-4.9423828,4.9423828c0,2.7304688,2.2114258,4.9418945,4.9423828,4.9418945h9.8842773
	v9.2299805h-9.8842773c-2.730957,0-4.9423828,2.2114258-4.9423828,4.9418945c0,2.730957,2.2114258,4.9423828,4.9423828,4.9423828
	h9.8842773v9.2172852h-9.8842773c-2.730957,0-4.9423828,2.2241211-4.9423828,4.9423828
	c0,2.7304688,2.2114258,4.9423828,4.9423828,4.9423828h9.8842773v9.2290039h-9.8842773
	c-2.730957,0-4.9423828,2.2119141-4.9423828,4.9423828s2.2114258,4.9423828,4.9423828,4.9423828h9.8842773v9.2294922h-9.8842773
	c-2.730957,0-4.9423828,2.2119141-4.9423828,4.9423828s2.2114258,4.9423828,4.9423828,4.9423828h9.8842773v9.2167969h-9.8842773
	c-2.730957,0-4.9423828,2.2119141-4.9423828,4.9423828s2.2114258,4.9423828,4.9423828,4.9423828h9.8842773v9.2294922h-9.8842773
	c-2.730957,0-4.9423828,2.2119141-4.9423828,4.9423828s2.2114258,4.9423828,4.9423828,4.9423828h9.8842773v9.2294922h-9.8842773
	c-2.730957,0-4.9423828,2.2119141-4.9423828,4.9423828s2.2114258,4.9423828,4.9423828,4.9423828h9.8842773v9.2167969h-9.8842773
	c-2.730957,0-4.9423828,2.2246094-4.9423828,4.9423828c0,2.7304688,2.2114258,4.9423828,4.9423828,4.9423828h9.8842773v9.2294922
	h-9.8842773c-2.730957,0-4.9423828,2.2119141-4.9423828,4.9423828s2.2114258,4.9423828,4.9423828,4.9423828h9.8842773v9.2294922
	h-9.8842773c-2.730957,0-4.9423828,2.2119141-4.9423828,4.9423828s2.2114258,4.9423828,4.9423828,4.9423828h9.8842773v9.2167969
	h-9.8842773c-2.730957,0-4.9423828,2.2119141-4.9423828,4.9423828s2.2114258,4.9423828,4.9423828,4.9423828H63.9770508z"/>
<rect x="13.1459961" y="471.5634766" fill="#2197C1" width="12.9365234" height="23.6484375"/>
<rect x="13.1459961" y="143.9550781" fill="#29ABE2" width="12.9365234" height="317.7236328"/>
<rect x="9.8842773" y="109.7172852" fill="#E6E6E6" width="16.1982422" height="24.3530273"/>
<rect x="13.1459961" y="79.4711914" fill="#29ABE2" width="12.9365234" height="20.3618164"/>
<rect x="30.0483398" display="none" fill="#FCD577" width="600" height="600"/>
<path display="none" fill="#C4A457" d="M419.5737305,252.4726562h54.6962891
	c7.7978516,0,14.1181641-6.3212891,14.1181641-14.1191406V112.3134766c0-7.7973633-6.3203125-14.1186523-14.1181641-14.1186523
	h-54.6962891c-7.7978516,0-14.1191406,6.3212891-14.1191406,14.1186523v126.0410156
	C405.4545898,246.1513672,411.7758789,252.4726562,419.5737305,252.4726562z"/>
<path fill="#FFFFFF" d="M275.5610352,391.7216797c-5.6870117,0-10.7148438,2.1865234-13.7807617,5.5332031v15.2392578
	c3.065918,3.3486328,8.09375,5.5332031,13.7807617,5.5332031c9.3398438,0,16.9121094-5.8886719,16.9121094-13.1523438
	S284.9008789,391.7216797,275.5610352,391.7216797z"/>
<path display="none" fill="#E25749" d="M181.0610352,506.6269531c-19.2294922,0-37.4838867-7.8935547-48.8320312-21.1152344
	c-2.9628906-3.453125-2.5654297-8.6533203,0.8867188-11.6171875c3.4536133-2.9628906,8.6542969-2.5654297,11.6171875,0.8867188
	c8.2602539,9.625,21.8413086,15.3710938,36.328125,15.3710938c24.2714844,0,44.0175781-15.7587891,44.0175781-35.1289062
	c0-19.3691406-19.7460938-35.1279297-44.0175781-35.1279297c-14.4868164,0-28.0678711,5.7460938-36.328125,15.3701172
	c-2.9628906,3.453125-8.1645508,3.8496094-11.6171875,0.8876953c-3.4521484-2.9628906-3.8496094-8.1630859-0.8867188-11.6171875
	c11.347168-13.2216797,29.6025391-21.1162109,48.8320312-21.1162109c33.355957,0,60.4941406,23.1503906,60.4941406,51.6054688
	C241.5551758,483.4765625,214.4169922,506.6269531,181.0610352,506.6269531z"/>
<polygon fill="#415E72" points="357.2895508,271.1621094 357.2895508,251.9555664 163.1040039,251.9555664 163.1040039,433.9287109 
	291.6616211,433.9287109 291.6616211,419.4423828 267.8500977,419.4423828 267.8500977,382.8662109 252.543457,382.8662109 
	252.543457,419.4423828 178.4106445,419.4423828 178.4106445,359.2001953 282.3930664,359.2001953 282.3930664,344.8564453 
	203.1918945,344.8564453 191.5571289,344.8564453 178.4106445,344.8564453 178.4106445,266.1582031 252.543457,266.1582031 
	252.543457,318.9189453 267.8500977,318.9189453 267.8500977,266.1582031 341.9819336,266.1582031 341.9819336,344.8564453 
	322.8100586,344.8564453 322.8100586,359.2001953 341.9819336,359.2001953 341.9819336,419.4423828 320.9458008,419.4423828 
	320.9458008,433.9287109 357.2895508,433.9287109 357.2895508,283.2744141 "/>
<path display="none" fill="#FFFFFF" d="M256.6855469,390.0146484h-14.6914062v29.7226562h14.6914062
	c3.5244141,0,6.3808594-2.6777344,6.3808594-5.9794922v-17.7636719
	C263.0664062,392.6923828,260.2089844,390.0146484,256.6855469,390.0146484z"/>
<path display="none" fill="#FFFFFF" d="M283.4140625,283.5722656h-38.753418v64.1015625h19.0634766
	c10.875,0,19.6899414-8.2617188,19.6899414-18.4521484V283.5722656z"/>
<path display="none" fill="#CFDCE5" d="M144.4868164,274.6572266H77.3452148V46.828125h136.2197266v158.7504883
	C213.5639648,243.6679688,182.5771484,274.6572266,144.4868164,274.6572266z M93.8217773,258.1806641h50.6660156
	c29.0039062,0,52.6020508-23.5966797,52.6020508-52.6010742V63.3046875H93.8217773V258.1806641z"/>
<rect x="555.7260742" y="98.1972656" display="none" fill="#344F5E" width="27.0205078" height="154.2763672"/>
<path display="none" fill="#B2934D" d="M446.6401367,128.6518555h41.7460938v93.3647461h-41.7460938
	c-7.0341797,0-12.7392578-5.7036133-12.7392578-12.7397461v-67.8852539
	C433.9018555,134.3554688,439.605957,128.6518555,446.6401367,128.6518555z"/>
<path display="none" fill="#CFDCE5" d="M145.4545898,103.5175781c-4.1357422,0-7.4892578-3.3540039-7.4892578-7.4892578V55.0664062
	c0-4.1357422,3.3535156-7.4892578,7.4892578-7.4892578s7.4892578,3.3535156,7.4892578,7.4892578v40.9628906
	C152.9438477,100.1650391,149.590332,103.5175781,145.4545898,103.5175781z"/>
<path display="none" fill="#CFDCE5" d="M174.6625977,81.050293c-4.1357422,0-7.4897461-3.3540039-7.4897461-7.4892578V55.0664062
	c0-4.1357422,3.3540039-7.4892578,7.4897461-7.4892578c4.1352539,0,7.4892578,3.3535156,7.4892578,7.4892578v18.4956055
	C182.1518555,77.6962891,178.7978516,81.050293,174.6625977,81.050293z"/>
<path display="none" fill="#CFDCE5" d="M116.246582,81.050293c-4.1352539,0-7.4892578-3.3540039-7.4892578-7.4892578V55.0664062
	c0-4.1357422,3.3540039-7.4892578,7.4892578-7.4892578c4.1357422,0,7.4897461,3.3535156,7.4897461,7.4892578v18.4956055
	C123.7363281,77.6962891,120.3823242,81.050293,116.246582,81.050293z"/>
<ellipse fill="#415E72" cx="263.7519531" cy="328.3754883" rx="3.5546875" ry="3.331543"/>
<ellipse fill="#415E72" cx="273.5727539" cy="404.8754883" rx="3.5546875" ry="3.331543"/>
<polygon fill="#415E72" points="492.769043,267.7202148 492.769043,252.9682617 345.7397461,252.9682617 345.7397461,392.734375 
	443.0786133,392.734375 443.0786133,381.6083984 425.0493164,381.6083984 425.0493164,353.515625 413.4594727,353.515625 
	413.4594727,381.6083984 357.3295898,381.6083984 357.3295898,335.3388672 436.0600586,335.3388672 436.0600586,324.3212891 
	376.0922852,324.3212891 367.2836914,324.3212891 357.3295898,324.3212891 357.3295898,263.8769531 413.4594727,263.8769531 
	413.4594727,304.4003906 425.0493164,304.4003906 425.0493164,263.8769531 481.1791992,263.8769531 481.1791992,324.3212891 
	466.6625977,324.3212891 466.6625977,335.3388672 481.1791992,335.3388672 481.1791992,381.6083984 465.2514648,381.6083984 
	465.2514648,392.734375 492.769043,392.734375 492.769043,277.0229492 "/>
<ellipse fill="#6DD7A7" cx="299.6918945" cy="300" rx="15.5273438" ry="14.9990234"/>
<path fill="#00BB64" d="M315.2182617,300.1054688l-8.9238281-8.6201172c-1.6611328-1.6845703-4.0048828-2.734375-6.6025391-2.734375
	c-5.0341797,0-9.1152344,3.9414062-9.1152344,8.8046875c0,2.5097656,1.0878906,4.7744141,2.8330078,6.3779297l1.2294922,1.1904297
	v4.6230469c0,0.4902344,0.2470703,0.9287109,0.6269531,1.203125l4.1884766,4.0458984
	c0.0791016,0.0009766,0.1582031,0.0029297,0.2373047,0.0029297
	C308.230957,314.9990234,315.159668,308.3408203,315.2182617,300.1054688z"/>
<path fill="#FF3200" d="M304.2485352,307.6943359l-0.2519531-0.7578125c1.4619141-0.4541016,4.1220703-1.703125,5.5-4.9707031
	l0.7636719,0.3007812C308.7553711,305.8330078,305.847168,307.1982422,304.2485352,307.6943359z"/>
<path fill="#ED2400" d="M303.1889648,311.2490234h-6.9951172c-0.8544922,0-1.5546875-0.6757812-1.5546875-1.5019531v-5.1728516
	c0-0.8261719,0.7001953-1.5019531,1.5546875-1.5019531h6.9951172c0.8554688,0,1.5556641,0.6757812,1.5556641,1.5019531v5.1728516
	C304.7446289,310.5732422,304.0444336,311.2490234,303.1889648,311.2490234z"/>
<path fill="#CA1C00" d="M303.1889648,303.0722656h-3.4970703v8.1767578h3.4970703
	c0.8554688,0,1.5556641-0.6757812,1.5556641-1.5019531v-5.1728516
	C304.7446289,303.7480469,304.0444336,303.0722656,303.1889648,303.0722656z"/>
<ellipse fill="#FF4F19" cx="299.6918945" cy="297.5554199" rx="9.1142578" ry="8.8049316"/>
<path fill="#FF3200" d="M299.6918945,288.7509766v17.609375c5.0341797,0,9.1152344-3.9414062,9.1152344-8.8046875
	S304.7260742,288.7509766,299.6918945,288.7509766z"/>
<ellipse fill="#FFFFFF" cx="299.6918945" cy="297.5556641" rx="3.9892578" ry="3.8535156"/>
<path fill="#D8D8DA" d="M299.6918945,293.7021484v7.7070312c2.203125,0,3.9892578-1.7246094,3.9892578-3.8535156
	S301.8950195,293.7021484,299.6918945,293.7021484z"/>
<ellipse fill="#ED2400" cx="299.6918945" cy="297.5551758" rx="1.8847657" ry="1.8208008"/>
<path fill="#CA1C00" d="M301.5766602,297.5556641c0-1.0058594-0.84375-1.8203125-1.8847656-1.8203125v3.640625
	C300.7329102,299.3759766,301.5766602,298.5615234,301.5766602,297.5556641z"/>
<ellipse fill="#D8D8DA" cx="309.878418" cy="302.1162109" rx="1.3994141" ry="1.3515625"/>
<ellipse fill="#84CAFF" cx="380.9194336" cy="356.3046875" rx="14.4814453" ry="13.3623047"/>
<path fill="#00A6FF" d="M394.9975586,359.4462891l-12.6396484-11.6621094
	c-0.7509766-0.9082031-2.2744141-0.8730469-2.9628906,0.109375l-9.1279297,13.0273438
	c-0.5507812,0.7861328-0.28125,1.7470703,0.4277344,2.2460938l6.5839844,6.0742188
	c1.1621094,0.2773438,2.3828125,0.4257812,3.640625,0.4257812
	C387.7446289,369.6669922,393.4663086,365.3095703,394.9975586,359.4462891z"/>
<path fill="#3C3B41" d="M379.3950195,347.8935547l-9.1279297,13.0273438
	c-0.78125,1.1152344,0.0859375,2.5839844,1.5234375,2.5839844h18.2558594c1.4384766,0,2.3046875-1.46875,1.5244141-2.5839844
	l-9.1279297-13.0273438C381.7280273,346.8740234,380.1098633,346.8740234,379.3950195,347.8935547z"/>
<path fill="#171719" d="M391.5708008,360.9208984l-9.1279297-13.0273438
	c-0.3574219-0.5097656-0.9414062-0.765625-1.5234375-0.765625v16.3769531h9.1269531
	C391.4848633,363.5048828,392.3510742,362.0361328,391.5708008,360.9208984z"/>
<path fill="#FFDB2D" d="M380.5112305,349.0400391l-8.2871094,12.0761719
	c-0.203125,0.296875,0.0273438,0.6835938,0.4082031,0.6835938h16.5742188c0.3798828,0,0.6103516-0.3867188,0.40625-0.6835938
	l-8.2871094-12.0761719C381.1362305,348.7646484,380.7006836,348.7646484,380.5112305,349.0400391z"/>
<path fill="#EBB300" d="M389.6137695,361.1162109l-8.2880859-12.0761719c-0.09375-0.1376953-0.25-0.2070312-0.40625-0.2070312
	v12.9667969h8.2871094C389.5864258,361.7998047,389.8168945,361.4130859,389.6137695,361.1162109z"/>
<polygon fill="#3C3B41" points="382.9936523,355.5263672 381.2709961,355.5849609 382.519043,352.4072266 379.5551758,352.4970703 
	378.7260742,356.8789062 380.6342773,356.8212891 380.4936523,358.7822266 379.7299805,358.3144531 380.3666992,361.0439453 
	382.0932617,358.8955078 381.2241211,358.9560547 "/>
<polygon fill="#171719" points="381.2241211,358.9560547 382.9936523,355.5263672 381.2709961,355.5849609 382.519043,352.4072266 
	380.9194336,352.4560547 380.9194336,360.3564453 382.0932617,358.8955078 "/>
<ellipse fill="#3C3B41" cx="453.4418945" cy="369.6665039" rx="14.1513672" ry="14.4985352"/>
<path fill="#171719" d="M467.5932617,369.6669922c0-0.5341797-0.0292969-1.0615234-0.0830078-1.5800781l-3.765625-3.8574219
	c-0.1064453-0.2539062-0.3525391-0.4326172-0.6367188-0.4326172h-19.3310547c-0.3818359,0-0.6943359,0.3193359-0.6943359,0.7099609
	v10.3203125c0,0.2910156,0.1757812,0.5439453,0.4228516,0.6523438l8.3945312,8.6005859
	c0.5068359,0.0556641,1.0214844,0.0859375,1.5419922,0.0859375
	C461.2583008,384.1660156,467.5932617,377.6748047,467.5932617,369.6669922z"/>
<path fill="#00C379" d="M463.1079102,375.5371094h-19.3310547c-0.3818359,0-0.6943359-0.3193359-0.6943359-0.7099609v-10.3203125
	c0-0.390625,0.3125-0.7099609,0.6943359-0.7099609h19.3310547c0.3808594,0,0.6933594,0.3193359,0.6933594,0.7099609v10.3203125
	C463.8012695,375.2177734,463.4887695,375.5371094,463.1079102,375.5371094z"/>
<path fill="#008C49" d="M463.1079102,363.796875h-9.6660156v11.7402344h9.6660156
	c0.3808594,0,0.6933594-0.3193359,0.6933594-0.7099609v-10.3203125
	C463.8012695,364.1162109,463.4887695,363.796875,463.1079102,363.796875z"/>
<path fill="#FFFFFF" d="M462.4692383,374.8193359h-18.0546875c-0.3466797,0-0.6308594-0.2910156-0.6308594-0.6484375v-9.0078125
	c0-0.3574219,0.2841797-0.6484375,0.6308594-0.6484375h18.0546875c0.3476562,0,0.6318359,0.2910156,0.6318359,0.6484375v9.0078125
	C463.1010742,374.5283203,462.8168945,374.8193359,462.4692383,374.8193359z M444.4145508,364.9326172
	c-0.1240234,0-0.2236328,0.1035156-0.2236328,0.2304688v9.0078125c0,0.1269531,0.0996094,0.2304688,0.2236328,0.2304688h18.0546875
	c0.1240234,0,0.2236328-0.1035156,0.2236328-0.2304688v-9.0078125c0-0.1269531-0.0996094-0.2304688-0.2236328-0.2304688H444.4145508
	L444.4145508,364.9326172z"/>
<path fill="#D8D8DA" d="M462.4692383,364.5146484h-9.0273438v0.4179688h9.0273438
	c0.1240234,0,0.2236328,0.1035156,0.2236328,0.2304688v9.0078125c0,0.1269531-0.0996094,0.2304688-0.2236328,0.2304688h-9.0273438
	v0.4179688h9.0273438c0.3476562,0,0.6318359-0.2910156,0.6318359-0.6484375v-9.0078125
	C463.1010742,364.8056641,462.8168945,364.5146484,462.4692383,364.5146484z"/>
<polygon fill="#D8D8DA" points="461.5112305,369.6669922 459.1108398,366.1630859 459.1108398,373.171875 "/>
<path fill="#FFFFFF" d="M448.3774414,371.2998047v0.6318359h-3.0332031v-4.5292969h2.9765625v0.6318359h-2.2792969v1.2890625
	h1.9746094v0.5927734h-1.9746094v1.3837891H448.3774414z"/>
<path fill="#FFFFFF" d="M449.3725586,367.4023438l1.2265625,1.7861328l1.2265625-1.7861328h0.7666016l-1.6191406,2.2958984
	l1.5693359,2.2333984h-0.7666016l-1.1767578-1.7216797l-1.1757812,1.7216797h-0.7734375l1.5761719-2.2333984l-1.6259766-2.2958984
	H449.3725586L449.3725586,367.4023438z"/>
<path fill="#FFFFFF" d="M453.090332,371.9316406v-4.5292969h0.6982422v4.5292969H453.090332z"/>
<rect x="453.4418945" y="367.4013672" fill="#D8D8DA" width="0.3466797" height="4.5302734"/>
<path fill="#D8D8DA" d="M458.0288086,368.0341797h-1.4707031v3.8974609h-0.703125v-3.8974609h-1.4755859v-0.6318359h3.6494141
	V368.0341797L458.0288086,368.0341797z"/>
<ellipse fill="#FF7A53" cx="182.6474609" cy="224.5830078" rx="19.5429688" ry="18.0527344"/>
<path fill="#FF4F19" d="M202.190918,224.5834961c0-0.4047852-0.015625-0.8056641-0.0439453-1.2036133l-3.7763672-3.4882812
	h-31.4462891v6.2060547l17.7944336,16.4375C194.5385742,241.5795898,202.190918,233.9072266,202.190918,224.5834961z"/>
<polygon fill="#FFFFFF" points="196.512207,225.371582 168.7827148,225.371582 168.7827148,227.7338867 176.1083984,232.9077148 
	189.1865234,232.9077148 196.512207,227.7338867 "/>
<polygon fill="#D8D8DA" points="182.6474609,225.371582 182.6474609,232.9077148 189.1865234,232.9077148 196.512207,227.7338867 
	196.512207,225.371582 "/>
<rect x="166.9243164" y="219.8920898" fill="#C8C6CC" width="31.4467773" height="6.2060547"/>
<rect x="182.6474609" y="219.8920898" fill="#8B8992" width="15.7231445" height="6.2060547"/>
<rect x="178.1630859" y="228.4418945" fill="#3C3B41" width="8.9697266" height="1.0297852"/>
<rect x="182.6474609" y="228.4418945" fill="#171719" width="4.484375" height="1.0297852"/>
<polygon fill="#3C3B41" points="175.434082,228.4423828 175.434082,229.4716797 171.2421875,229.4716797 169.7856445,228.4423828 
	"/>
<polygon fill="#171719" points="195.5092773,228.4423828 194.0532227,229.4716797 189.8608398,229.4716797 189.8608398,228.4423828 
	"/>
<rect x="178.1630859" y="230.5390625" fill="#3C3B41" width="8.9697266" height="1.0292969"/>
<rect x="182.6474609" y="230.5390625" fill="#171719" width="4.484375" height="1.0292969"/>
<polygon fill="#3C3B41" points="175.434082,230.5390625 175.434082,231.5683594 174.2109375,231.5683594 172.7543945,230.5390625 
	"/>
<polygon fill="#171719" points="192.5405273,230.5390625 191.0844727,231.5683594 189.8608398,231.5683594 189.8608398,230.5390625 
	"/>
<ellipse fill="#FFFFFF" cx="182.6474609" cy="222.9951172" rx="2.0917969" ry="1.9321289"/>
<path fill="#D8D8DA" d="M182.6474609,221.0629883v3.8642578c1.1557617,0,2.0917969-0.8652344,2.0917969-1.9326172
	C184.7392578,221.9282227,183.8032227,221.0629883,182.6474609,221.0629883z"/>
<ellipse fill="#FF4F19" cx="182.6474609" cy="222.9953613" rx="1.3837891" ry="1.2785645"/>
<path fill="#FF3200" d="M184.0317383,222.9946289c0-0.7055664-0.6201172-1.2783203-1.3842773-1.2783203v2.5571289
	C183.4121094,224.2734375,184.0317383,223.7011719,184.0317383,222.9946289z"/>
<ellipse fill="#84CAFF" cx="236.5302734" cy="222.0080566" rx="18.5151367" ry="19.5666504"/>
<path fill="#00A6FF" d="M255.0463867,223.3481445c0-2.0639648-0.3496094-4.0478516-0.9916992-5.8974609l-0.0800781-0.0493164
	l0.0556641-0.0195312c-0.0229492-0.0668945-0.046875-0.1333008-0.0712891-0.1992188l-7.8305664-7.7084961l-1.3623047-0.8393555
	l-6.7563477,2.2553711c-0.3979492-0.3339844-0.9125977-0.5366211-1.4770508-0.5366211
	c-0.8955078,0-1.6699219,0.5097656-2.0415039,1.25h-1.9443359v0.3183594h-1.855957
	c-1.3154297,0-3.2626953,1.0332031-3.2626953,3.2490234v9.9829102l-1.5922852,7.5556641l5.0864258,4.7241211v0.6279297
	l3.4428711,3.3896484c0.7099609,0.0810547,1.4326172,0.1245117,2.1650391,0.1245117
	C246.7563477,241.5751953,255.0463867,233.4150391,255.0463867,223.3481445z"/>
<polygon fill="#171719" points="241.4287109,210.3037109 237.9677734,210.3037109 237.9677734,212.2543945 241.4287109,212.2543945 
	245.4467773,214.9667969 245.4467773,214.3256836 "/>
<polygon fill="#171719" points="236.7861328,209.0737305 237.7856445,210.2954102 246.128418,207.1142578 244.7661133,206.2133789 
	"/>
<polygon fill="#29292B" points="228.7939453,223.9462891 228.1118164,223.6928711 227.4282227,223.9462891 225.8349609,232.0576172 
	230.3876953,232.0576172 "/>
<path fill="#3C3B41" d="M230.690918,209.7421875c-1.3154297,0-3.2626953,1.1083984-3.2626953,3.487793v10.7163086h1.3657227
	v-10.7163086c0-0.6669922,0.2387695-1.1972656,0.7084961-1.5761719c0.4013672-0.3237305,0.8857422-0.4682617,1.1884766-0.4682617
	h2.0610352v-1.4433594H230.690918z"/>
<path fill="#FF3200" d="M237.9736328,214.1103516v-1.8422852h-2.8828125v1.8422852
	c-2.3994141,0.671875-4.168457,2.9824219-4.168457,5.7299805v17.9628906h11.2207031V219.840332
	C242.1430664,217.0927734,240.3740234,214.7822266,237.9736328,214.1103516z"/>
<path fill="#CA1C00" d="M242.1430664,219.840332c0-2.7475586-1.769043-5.0581055-4.1694336-5.7299805v-1.8422852h-1.4433594
	v25.5351562h5.612793V219.840332L242.1430664,219.840332z"/>
<rect x="230.9213867" y="223.4521484" fill="#FFE670" width="11.2211914" height="6.7348633"/>
<rect x="236.5302734" y="223.4521484" fill="#FFCF00" width="5.612793" height="6.7348633"/>
<path fill="#FFFFFF" d="M236.5327148,208.0585938c-0.8955078,0-1.6699219,0.546875-2.0415039,1.3417969h-1.9443359v2.1269531
	h1.9443359c0.371582,0.7949219,1.1459961,1.3417969,2.0415039,1.3417969c1.2573242,0,2.2758789-1.0766602,2.2758789-2.4052734
	S237.7890625,208.0585938,236.5327148,208.0585938z"/>
<path fill="#C8C6CC" d="M236.5327148,212.8691406c1.2573242,0,2.2758789-1.0766602,2.2758789-2.4052734
	s-1.0185547-2.4052734-2.2758789-2.4052734c-0.0009766,0-0.0014648,0-0.0024414,0v4.8105469
	C236.53125,212.8691406,236.5317383,212.8691406,236.5327148,212.8691406z"/>
<path fill="#FF3200" d="M236.5327148,208.7138672c-0.9150391,0-1.6567383,0.7832031-1.6567383,1.75
	c0,0.9672852,0.7416992,1.7504883,1.6567383,1.7504883c0.9145508,0,1.6567383-0.7832031,1.6567383-1.7504883
	C238.1894531,209.4970703,237.4472656,208.7138672,236.5327148,208.7138672z M236.5327148,211.3486328
	c-0.4624023,0-0.8374023-0.3964844-0.8374023-0.8847656s0.375-0.8847656,0.8374023-0.8847656
	s0.8364258,0.3964844,0.8364258,0.8847656S236.9951172,211.3486328,236.5327148,211.3486328z"/>
<path fill="#CA1C00" d="M236.5327148,208.7138672c-0.0009766,0-0.0014648,0-0.0024414,0v0.8657227
	c0.0009766,0,0.0014648,0,0.0024414,0c0.4624023,0,0.8364258,0.3959961,0.8364258,0.8842773
	c0,0.4887695-0.3740234,0.8847656-0.8364258,0.8847656c-0.0009766,0-0.0014648,0-0.0024414,0v0.8657227
	c0.0009766,0,0.0014648,0,0.0024414,0c0.9145508,0,1.6567383-0.7832031,1.6567383-1.7504883
	C238.1884766,209.4970703,237.4472656,208.7138672,236.5327148,208.7138672z"/>
<path fill="#FFFFFF" d="M279.1992188,177.0620117v23.0175781h37.2143555v-23.0175781H279.1992188z M288.2294922,178.1264648
	v3.8583984h1.09375v-3.8583984h25.9946289v7.7167969h-9.0292969v13.171875h-7.9350586v-8.78125h-18.0595703v-12.1074219H288.2294922
	L288.2294922,178.1264648z M280.2939453,191.2983398h16.9648438v7.7167969h-16.9648438V191.2983398z M307.3823242,199.015625
	v-12.1079102h7.9355469v12.1079102H307.3823242z"/>
<path fill="#D0D1D3" d="M241.4575195,278.8178711h-52.4355469v2.8242188h49.3652344v20.472168h-25.3222656v34.9453125h-22.2543945
	v-23.296875h-1.7885742v26.1210938h52.4355469V278.8178711L241.4575195,278.8178711z M238.387207,337.0595703h-22.2548828
	v-32.1210938h22.2548828V337.0595703z"/>
<path fill="#D0D1D3" d="M210.7617188,298.1923828v-3.3886719h-2.0732422
	c-0.175293-0.6220703-0.4433594-1.2080078-0.7885742-1.7460938l1.4677734-1.3530273l-2.6044922-2.3964844l-1.4677734,1.3500977
	c-0.5859375-0.3164062-1.2241211-0.5649414-1.9008789-0.7255859v-1.9067383h-3.6835938v1.9067383
	c-0.6762695,0.1606445-1.3115234,0.4091797-1.8979492,0.7255859l-1.4677734-1.3500977l-2.6044922,2.3964844l1.4677734,1.3530273
	c-0.3476562,0.5380859-0.6162109,1.1240234-0.7885742,1.7460938h-2.0756836v3.3886719h2.0732422
	c0.1748047,0.6210938,0.4433594,1.2070312,0.7885742,1.7460938l-1.4682617,1.3525391l2.6044922,2.3935547l1.4682617-1.3496094
	c0.5859375,0.3183594,1.2241211,0.5673828,1.9003906,0.7255859v1.9091797h3.6835938v-1.9091797
	c0.6767578-0.1582031,1.3120117-0.4072266,1.8979492-0.7255859l1.4682617,1.3496094l2.6044922-2.3935547l-1.4682617-1.3525391
	c0.3481445-0.5390625,0.6162109-1.125,0.7890625-1.7460938H210.7617188L210.7617188,298.1923828z M201.5541992,299.8867188
	c-2.034668,0-3.6835938-1.5185547-3.6835938-3.3886719c0-1.8710938,1.6489258-3.3896484,3.6835938-3.3896484
	c2.0322266,0,3.6835938,1.5185547,3.6835938,3.3896484C205.237793,298.3681641,203.5893555,299.8867188,201.5541992,299.8867188z"/>
<ellipse fill="#19A4FF" cx="459.1918945" cy="299.3759766" rx="14.7441406" ry="12.7275391"/>
<rect x="466.4956055" y="301.4404297" fill="#949493" width="2.1914062" height="6.9863281"/>
<polyline fill="#C7CAC7" points="451.8881836,307.4736328 466.4956055,307.4736328 466.4956055,302.3925781 
	451.8881836,302.3925781 "/>
<rect x="468.6870117" y="302.3925781" fill="#C7CAC7" width="1.0957031" height="5.0810547"/>
<rect x="449.6967773" y="301.4404297" fill="#949493" width="2.1914062" height="6.9863281"/>
<rect x="448.6010742" y="302.3925781" fill="#C7CAC7" width="1.0957031" height="5.0810547"/>
<rect x="453.7143555" y="300.4873047" fill="#E7ECED" width="10.9560547" height="1.9052734"/>
<rect x="451.1577148" y="293.1845703" fill="#C7CAC7" width="8.7646484" height="0.9521484"/>
<rect x="457.3657227" y="296.9941406" fill="#949493" width="3.6523438" height="2.5410156"/>
<rect x="458.4614258" y="294.1367188" fill="#556080" width="1.4609375" height="2.8574219"/>
<path fill="#B02721" d="M460.5014648,291.0917969l-0.0625,0.0546875c-0.3310547,0.2880859-0.7792969,0.4492188-1.2470703,0.4492188
	l0,0c-0.4677734,0-0.9160156-0.1611328-1.2460938-0.4492188l-0.0634766-0.0546875
	c-0.3300781-0.2871094-0.7783203-0.4482422-1.2460938-0.4482422h-1.9189453c-0.9570312,0-1.7333984,0.6748047-1.7333984,1.5068359
	v1.4316406c0,0.8320312,0.7763672,1.5068359,1.7333984,1.5068359h2.6484375v-0.9521484h3.6523438v0.9521484h2.6494141
	c0.9570312,0,1.7333984-0.6748047,1.7333984-1.5068359v-1.4316406c0-0.8320312-0.7763672-1.5068359-1.7333984-1.5068359h-1.9189453
	C461.2807617,290.6435547,460.8325195,290.8046875,460.5014648,291.0917969z"/>
<path fill="#556080" d="M459.1918945,291.5957031c0.2558594,0,0.5029297-0.0517578,0.7304688-0.1425781v-1.1279297h-1.4609375
	v1.1279297C458.6899414,291.5439453,458.9370117,291.5957031,459.1918945,291.5957031z"/>
</svg>
