<?xml version="1.0" encoding="iso-8859-1"?>
<!-- Generator: Adobe Illustrator 19.0.0, SVG Export Plug-In . SVG Version: 6.00 Build 0)  -->
<svg version="1.1" id="Layer_1" xmlns="http://www.w3.org/2000/svg" xmlns:xlink="http://www.w3.org/1999/xlink" x="0px" y="0px"
	 viewBox="0 0 512.04 512.04" style="enable-background:new 0 0 512.04 512.04;" xml:space="preserve">
<polygon style="fill:#FFFFFF;" points="77.484,510 77.484,32.56 434.556,32.56 434.556,456 380.564,510 "/>
<path style="fill:#AAC1CE;" d="M432.556,34.56v420.616L379.74,508H79.484V34.56H432.556 M436.556,30.56H75.484V512h305.912
	l55.16-55.168L436.556,30.56L436.556,30.56z"/>
<g>
	<polygon style="fill:#00000A;" points="381.396,512 381.396,456.832 436.556,456.832 	"/>
	<rect x="381.396" y="455" style="fill:#00000A;" width="55.16" height="1.832"/>
	<rect x="379.54" y="455.04" style="fill:#00000A;" width="1.832" height="57"/>
</g>
<rect x="158.364" y="123.008" style="fill:#E04F5F;" width="51.24" height="101.304"/>
<rect x="255.06" y="65.12" style="fill:#FFD07D;" width="51.24" height="159.192"/>
<rect x="351.756" style="fill:#25B6D2;" width="51.24" height="224.32"/>
<rect x="109.052" y="220.312" style="fill:#666666;" width="293.936" height="8"/>
<path style="fill:#FFD07D;" d="M165.26,261.752c-25.304,0-45.824,20.512-45.824,45.824c0,25.304,20.512,45.824,45.824,45.824
	c25.296,0,45.8-20.496,45.816-45.784H165.26L165.26,261.752L165.26,261.752z"/>
<g>
	<path style="fill:#CFDCE5;" d="M197.676,275.192l-32.416,32.416h45.816c0-0.008,0-0.024,0-0.032
		C211.084,294.928,205.956,283.48,197.676,275.192z"/>
	<path style="fill:#CFDCE5;" d="M165.26,261.752v45.856l32.416-32.416C189.38,266.888,177.924,261.752,165.26,261.752z"/>
</g>
<path style="fill:#AAC1CE;" d="M197.676,339.928l-32.416-32.416h45.816c0,0.008,0,0.024,0,0.032
	C211.084,320.184,205.956,331.632,197.676,339.928z"/>
<path style="fill:#8BA0AE;" d="M165.26,353.36v-45.856l32.416,32.416C189.38,348.224,177.924,353.36,165.26,353.36z"/>
<path style="fill:#E04F5F;" d="M165.26,378.776c-25.304,0-45.824,20.512-45.824,45.824c0,25.304,20.512,45.824,45.824,45.824
	c25.296,0,45.8-20.496,45.816-45.784H165.26L165.26,378.776L165.26,378.776z"/>
<g>
	<path style="fill:#CFDCE5;" d="M197.676,392.216l-32.416,32.416h45.816c0-0.008,0-0.024,0-0.032
		C211.084,411.952,205.956,400.504,197.676,392.216z"/>
	<path style="fill:#CFDCE5;" d="M165.26,378.776v45.856l32.416-32.416C189.38,383.912,177.924,378.776,165.26,378.776z"/>
</g>
<path style="fill:#AAC1CE;" d="M197.676,456.944l-32.416-32.416h45.816c0,0.008,0,0.024,0,0.032
	C211.084,437.208,205.956,448.656,197.676,456.944z"/>
<path style="fill:#8BA0AE;" d="M165.26,470.384v-45.856l32.416,32.416C189.38,465.248,177.924,470.384,165.26,470.384z"/>
<g>
	<rect x="237.132" y="402.8" style="fill:#AAC1CE;" width="155.472" height="4"/>
	<rect x="237.132" y="422.528" style="fill:#AAC1CE;" width="155.472" height="4"/>
	<rect x="237.132" y="442.24" style="fill:#AAC1CE;" width="62.984" height="4"/>
	<rect x="237.132" y="285.904" style="fill:#AAC1CE;" width="155.472" height="4"/>
	<rect x="237.132" y="305.6" style="fill:#AAC1CE;" width="155.472" height="4"/>
	<rect x="237.132" y="325.312" style="fill:#AAC1CE;" width="62.984" height="4"/>
</g>
<g>
</g>
<g>
</g>
<g>
</g>
<g>
</g>
<g>
</g>
<g>
</g>
<g>
</g>
<g>
</g>
<g>
</g>
<g>
</g>
<g>
</g>
<g>
</g>
<g>
</g>
<g>
</g>
<g>
</g>
</svg>
