<?xml version="1.0" encoding="iso-8859-1"?>
<!-- Generator: Adobe Illustrator 19.0.0, SVG Export Plug-In . SVG Version: 6.00 Build 0)  -->
<svg version="1.1" id="Layer_1" xmlns="http://www.w3.org/2000/svg" xmlns:xlink="http://www.w3.org/1999/xlink" x="0px" y="0px"
	 viewBox="0 0 491.52 491.52" style="enable-background:new 0 0 491.52 491.52;" xml:space="preserve">
<path style="fill:#D5D6DB;" d="M323.375,17.246H48.689c-15.442,0-27.959,12.519-27.959,27.959v418.355
	c0,15.442,12.518,27.959,27.959,27.959h274.685c15.442,0,27.959-12.518,27.959-27.959V45.206
	C351.334,29.765,338.817,17.246,323.375,17.246z"/>
<path style="fill:#EBF0F3;" d="M323.375,0H48.689C33.247,0,20.73,12.518,20.73,27.959v418.356c0,15.441,12.518,27.959,27.959,27.959
	h274.685c15.442,0,27.959-12.519,27.959-27.959V27.959C351.334,12.518,338.817,0,323.375,0z"/>
<g>
	<path style="fill:#64798A;" d="M316.838,395.561V54.53c0-2.542-2.183-4.602-4.877-4.602H60.102c-2.694,0-4.877,2.061-4.877,4.602
		v341.031c0,2.543,2.183,4.603,4.877,4.603h251.859C314.655,400.164,316.838,398.104,316.838,395.561z"/>
	<circle style="fill:#64798A;" cx="186.011" cy="438.835" r="23.393"/>
</g>
<rect x="197.741" y="79.519" style="fill:#FFFFFF;" width="273.05" height="273.05"/>
<g>
	<path style="fill:#64798A;" d="M284.797,166.576h-76.806v-76.81h76.806V166.576z M228.485,146.082h35.817V110.26h-35.817V146.082z"
		/>
	<path style="fill:#64798A;" d="M460.543,166.576h-76.805v-76.81h76.805V166.576z M404.232,146.082h35.816V110.26h-35.816V146.082z"
		/>
	<path style="fill:#64798A;" d="M284.797,342.323h-76.806v-76.81h76.806V342.323z M228.485,321.829h35.817v-35.821h-35.817V321.829z
		"/>
	<rect x="207.991" y="244.905" style="fill:#64798A;" width="19.425" height="20.48"/>
	<rect x="246.836" y="224.809" style="fill:#64798A;" width="19.425" height="20.48"/>
	<rect x="207.991" y="203.94" style="fill:#64798A;" width="19.425" height="20.48"/>
	<rect x="227.431" y="224.809" style="fill:#64798A;" width="19.425" height="20.48"/>
	<rect x="285.697" y="244.905" style="fill:#64798A;" width="19.425" height="20.48"/>
	<rect x="305.102" y="224.809" style="fill:#64798A;" width="19.425" height="20.48"/>
	<rect x="266.292" y="224.809" style="fill:#64798A;" width="19.425" height="20.48"/>
	<rect x="324.558" y="244.905" style="fill:#64798A;" width="19.425" height="20.48"/>
	<rect x="363.408" y="224.809" style="fill:#64798A;" width="19.425" height="20.48"/>
	<rect x="343.963" y="224.809" style="fill:#64798A;" width="19.425" height="20.48"/>
	<rect x="382.823" y="224.809" style="fill:#64798A;" width="19.425" height="20.48"/>
	<rect x="441.14" y="203.94" style="fill:#64798A;" width="19.425" height="20.48"/>
	<rect x="421.684" y="224.809" style="fill:#64798A;" width="19.425" height="20.48"/>
	<rect x="207.991" y="162.98" style="fill:#64798A;" width="19.425" height="20.48"/>
	<rect x="246.836" y="162.98" style="fill:#64798A;" width="19.425" height="20.48"/>
	<rect x="227.431" y="183.844" style="fill:#64798A;" width="19.425" height="20.48"/>
	<rect x="305.102" y="183.844" style="fill:#64798A;" width="19.425" height="20.48"/>
	<rect x="285.697" y="183.844" style="fill:#64798A;" width="19.425" height="20.48"/>
	<rect x="266.292" y="183.844" style="fill:#64798A;" width="19.425" height="20.48"/>
	<rect x="343.963" y="162.98" style="fill:#64798A;" width="19.425" height="20.48"/>
	<rect x="343.963" y="183.844" style="fill:#64798A;" width="19.425" height="20.48"/>
	<rect x="285.697" y="122.015" style="fill:#64798A;" width="19.425" height="20.48"/>
	<rect x="324.558" y="122.015" style="fill:#64798A;" width="19.425" height="20.48"/>
	<rect x="363.408" y="122.015" style="fill:#64798A;" width="19.425" height="20.48"/>
	<rect x="343.963" y="142.879" style="fill:#64798A;" width="19.425" height="20.48"/>
	<rect x="324.558" y="101.914" style="fill:#64798A;" width="19.425" height="20.48"/>
	<rect x="343.963" y="101.914" style="fill:#64798A;" width="19.425" height="20.48"/>
	<rect x="402.279" y="162.98" style="fill:#64798A;" width="19.425" height="20.48"/>
	<rect x="382.823" y="183.844" style="fill:#64798A;" width="19.425" height="20.48"/>
	<rect x="441.14" y="162.98" style="fill:#64798A;" width="19.425" height="20.48"/>
	<rect x="421.684" y="183.844" style="fill:#64798A;" width="19.425" height="20.48"/>
	<rect x="324.558" y="285.87" style="fill:#64798A;" width="19.425" height="20.48"/>
	<rect x="305.102" y="306.734" style="fill:#64798A;" width="19.425" height="20.48"/>
	<rect x="236.699" y="293.683" style="fill:#64798A;" width="19.425" height="20.48"/>
	<rect x="412.417" y="117.914" style="fill:#64798A;" width="19.425" height="20.48"/>
	<rect x="236.699" y="117.914" style="fill:#64798A;" width="19.425" height="20.48"/>
	<rect x="382.823" y="285.87" style="fill:#64798A;" width="19.425" height="20.48"/>
	<rect x="402.279" y="285.87" style="fill:#64798A;" width="19.425" height="20.48"/>
	<rect x="402.279" y="265.006" style="fill:#64798A;" width="19.425" height="20.48"/>
	<rect x="402.279" y="244.137" style="fill:#64798A;" width="19.425" height="20.48"/>
	<rect x="441.14" y="285.87" style="fill:#64798A;" width="19.425" height="20.48"/>
	<rect x="421.684" y="306.734" style="fill:#64798A;" width="19.425" height="20.48"/>
	<path style="fill:#64798A;" d="M230.18,18.782h-88.295c-4.309,0-7.804,3.493-7.804,7.804c0,4.309,3.494,7.804,7.804,7.804h88.295
		c4.31,0,7.803-3.494,7.803-7.804C237.983,22.276,234.49,18.782,230.18,18.782z"/>
</g>
<g>
</g>
<g>
</g>
<g>
</g>
<g>
</g>
<g>
</g>
<g>
</g>
<g>
</g>
<g>
</g>
<g>
</g>
<g>
</g>
<g>
</g>
<g>
</g>
<g>
</g>
<g>
</g>
<g>
</g>
</svg>
